<svg version="1.1" id="Layer_1" xmlns="http://www.w3.org/2000/svg" xmlns:xlink="http://www.w3.org/1999/xlink" x="0px" y="0px"
	 width="100%" viewBox="0 0 636 339" enable-background="new 0 0 636 339" xml:space="preserve">
<path fill="#000000" opacity="1.000000" stroke="none" 
	d="
M387.000000,340.000000 
	C258.000031,340.000000 129.500061,340.000000 1.000069,340.000000 
	C1.000046,227.000061 1.000046,114.000114 1.000023,1.000130 
	C212.999893,1.000086 424.999786,1.000086 636.999756,1.000043 
	C636.999878,113.999870 636.999878,226.999741 636.999939,339.999817 
	C553.833313,340.000000 470.666656,340.000000 387.000000,340.000000 
M385.840424,96.534805 
	C385.555206,96.335060 385.269989,96.135307 384.956482,95.576462 
	C384.956482,95.576462 384.879669,95.224533 384.975464,94.532166 
	C383.674744,93.335732 382.374054,92.139305 381.011566,90.983971 
	C381.011566,90.983971 381.059570,90.926559 380.914185,90.258560 
	C379.941864,89.822891 378.969574,89.387222 377.988129,89.014481 
	C377.988129,89.014481 378.051727,89.014732 377.841431,88.523018 
	C377.556152,88.317642 377.270905,88.112267 376.829681,87.495956 
	C376.658203,87.238060 376.421265,87.075691 375.891541,86.511703 
	C375.591675,86.318787 375.291809,86.125870 375.024506,85.994019 
	C375.024506,85.994019 375.083130,85.957222 374.850952,85.316849 
	C372.883057,83.933273 370.915131,82.549698 368.581360,81.042984 
	C368.581360,81.042984 368.200165,80.982025 367.890411,80.345581 
	C366.265930,79.537743 364.641449,78.729912 363.002075,77.988899 
	C363.002075,77.988899 363.069916,77.997894 362.893768,77.497757 
	C362.582031,77.383942 362.270264,77.270134 361.554871,77.047623 
	C361.554871,77.047623 361.140900,76.989563 360.815155,76.358109 
	C359.181274,75.638992 357.547424,74.919876 355.506653,74.082436 
	C355.506653,74.082436 355.090302,74.003746 354.891693,73.520996 
	C354.583649,73.422424 354.275574,73.323845 353.522430,73.119232 
	C353.522430,73.119232 353.076080,73.018684 352.716095,72.382225 
	C350.948700,71.576553 349.220917,70.665947 347.407684,69.981728 
	C332.164520,64.229797 316.408905,63.632000 300.546600,66.087807 
	C295.245880,66.908478 290.193878,69.336060 285.000000,71.000183 
	C285.000000,71.000183 285.026245,71.031601 284.261292,70.985695 
	C278.109253,74.003220 271.772400,76.705444 265.876801,80.160538 
	C262.522949,82.126045 259.890381,85.322304 256.992798,87.986984 
	C256.992798,87.986984 256.979004,87.924515 256.313690,88.016846 
	C255.847717,88.671906 255.381760,89.326965 254.983856,89.984627 
	C254.983856,89.984627 254.975922,89.916985 254.273865,89.998344 
	C252.497879,91.995338 250.721909,93.992325 249.003769,96.008736 
	C249.003769,96.008736 249.008102,95.947884 248.497910,96.114769 
	C248.311127,96.409088 248.124344,96.703407 247.995407,96.966270 
	C247.995407,96.966270 247.952438,96.916389 247.224136,96.930618 
	C245.468369,99.621628 243.712601,102.312637 241.538223,105.142677 
	C241.270996,105.300125 241.093567,105.527618 240.379364,105.915352 
	C237.571991,111.097794 234.527191,116.169388 232.038376,121.500534 
	C230.297440,125.229683 229.316544,129.313629 228.029877,133.783875 
	C228.015259,134.146866 228.000641,134.509857 227.291916,135.280273 
	C226.628296,139.645401 225.964691,144.010544 225.209991,148.741531 
	C225.189774,149.054474 225.335190,149.231140 224.967499,149.790741 
	C224.640808,151.349792 223.992310,152.919571 224.043869,154.466019 
	C224.251968,160.709427 224.597443,166.951187 225.036987,173.183334 
	C225.881607,185.158951 230.128052,196.171249 234.949493,206.982803 
	C235.500534,208.218475 236.922836,209.065613 237.945251,210.023148 
	C237.945251,210.023148 237.879028,210.045380 237.947998,210.791183 
	C238.265244,211.695480 238.464737,212.664047 238.917755,213.494263 
	C244.068817,222.934494 252.293472,229.779877 260.314667,236.311218 
	C267.261292,241.967575 276.033661,245.381729 284.655273,250.182190 
	C297.996490,255.287140 311.737030,257.487030 326.830811,255.988449 
	C332.552338,254.614944 338.273834,253.241425 344.751770,251.888855 
	C348.881165,250.415314 353.161865,249.264206 357.112732,247.410248 
	C371.210175,240.794876 382.325104,230.436630 391.983246,218.470734 
	C394.485107,215.371094 396.119263,211.571121 398.733521,207.703781 
	C406.625031,193.879120 410.252106,178.884918 411.006348,163.093216 
	C411.662811,149.348434 408.416840,136.197937 403.644745,123.599541 
	C400.023987,114.040749 395.131500,104.817261 387.011322,97.972519 
	C387.011322,97.972519 387.074432,98.004646 386.894440,97.489670 
	C386.591583,97.306366 386.288757,97.123062 385.988831,97.016640 
	C385.988831,97.016640 386.065735,97.014679 385.840424,96.534805 
z"/>
<path fill="#1D4D98" opacity="1.000000" stroke="none" 
	d="
M241.005951,105.825157 
	C241.093567,105.527618 241.270996,105.300125 242.079987,104.971413 
	C244.398636,102.172226 246.175537,99.544304 247.952438,96.916389 
	C247.952438,96.916389 247.995407,96.966270 248.164795,96.828232 
	C248.558838,96.442757 248.783478,96.195320 249.008102,95.947884 
	C249.008102,95.947884 249.003769,96.008736 249.305054,95.905289 
	C251.396210,93.840225 253.186066,91.878601 254.975922,89.916985 
	C254.975922,89.916985 254.983856,89.984627 255.231094,89.865601 
	C255.978546,89.139214 256.478760,88.531860 256.979004,87.924515 
	C256.979004,87.924515 256.992798,87.986984 257.331207,87.942261 
	C259.459015,87.093948 261.368195,86.481934 263.015991,85.451820 
	C268.561066,81.985321 274.020630,78.381523 279.496613,74.805283 
	C281.364624,73.585350 283.184418,72.291618 285.026245,71.031601 
	C285.026245,71.031601 285.000000,71.000183 285.430725,70.993607 
	C290.423157,70.193626 294.962219,69.219406 299.551300,68.644867 
	C308.808167,67.485931 317.942413,64.789154 327.465942,67.286957 
	C335.922058,69.504814 344.533295,71.131210 353.076080,73.018684 
	C353.076080,73.018684 353.522430,73.119232 353.916901,73.323959 
	C354.552795,73.716934 354.812439,73.875282 355.090302,74.003746 
	C355.090302,74.003746 355.506653,74.082436 355.862061,74.452484 
	C357.858643,75.544876 359.499756,76.267220 361.140900,76.989563 
	C361.140900,76.989563 361.554871,77.047623 361.927124,77.262070 
	C362.537567,77.677864 362.794434,77.851654 363.069916,77.997894 
	C363.069916,77.997894 363.002075,77.988899 363.127838,78.294876 
	C364.902466,79.394577 366.551300,80.188301 368.200165,80.982025 
	C368.200165,80.982025 368.581360,81.042984 368.828918,81.450706 
	C371.078735,83.224693 373.080933,84.590950 375.083130,85.957214 
	C375.083130,85.957222 375.024506,85.994019 375.177429,86.161476 
	C375.593201,86.555573 375.856049,86.782211 376.118896,87.008850 
	C376.421265,87.075691 376.658203,87.238060 377.069519,87.901138 
	C377.556824,88.542458 377.804260,88.778603 378.051727,89.014740 
	C378.051727,89.014732 377.988129,89.014481 378.144165,89.270660 
	C379.220001,89.993416 380.139771,90.459991 381.059570,90.926559 
	C381.059570,90.926559 381.011566,90.983971 381.057922,91.319016 
	C382.362762,92.844223 383.621216,94.034378 384.879669,95.224533 
	C384.879669,95.224533 384.956482,95.576462 385.132050,95.954315 
	C385.560333,96.559669 385.813019,96.787170 386.065735,97.014679 
	C386.065735,97.014679 385.988831,97.016640 386.151031,97.173698 
	C386.566956,97.555389 386.820709,97.780022 387.074432,98.004646 
	C387.074432,98.004646 387.011322,97.972519 387.056702,98.306183 
	C387.884979,100.267212 388.517426,101.990143 389.479095,103.503952 
	C392.320862,107.977448 395.604706,112.199013 398.123413,116.840492 
	C400.493256,121.207634 402.109711,125.983574 404.057648,130.579666 
	C403.574982,130.944290 403.092316,131.308929 402.609619,131.673569 
	C400.635712,130.392776 398.682800,129.078140 396.683960,127.837547 
	C390.737671,124.146912 384.325897,123.045937 377.642822,125.142540 
	C374.042694,126.271973 372.792542,129.705673 373.948059,132.795319 
	C374.944122,135.458572 377.744080,135.686142 380.443665,133.277237 
	C382.288513,133.176132 383.711914,133.138763 385.468018,133.264252 
	C387.565247,133.601578 389.329834,133.776031 391.062561,133.945923 
	C391.030762,133.941360 391.064697,133.886780 391.004822,134.245041 
	C389.365509,136.131699 387.923798,137.844452 386.177368,139.149399 
	C382.740509,141.717438 379.036133,143.986115 378.738525,149.297791 
	C378.014771,153.860855 377.034424,158.107330 377.072388,162.344681 
	C377.165253,172.714951 375.444550,182.495407 369.900482,191.456970 
	C368.898132,193.077179 368.687927,195.187439 368.115479,197.082520 
	C368.118958,197.093582 368.120605,197.116699 367.791565,197.216858 
	C366.678711,198.567993 365.894867,199.818985 365.056946,201.045395 
	C365.002869,201.020813 365.114502,201.055908 364.796478,201.194031 
	C361.800262,203.337982 357.632446,203.951569 357.694275,208.631668 
	C357.658112,208.711212 357.486237,208.742661 357.129028,208.668930 
	C355.558289,209.781754 354.344788,210.968292 353.125122,212.147659 
	C353.118988,212.140488 353.106171,212.135376 352.751892,212.151733 
	C351.301819,213.159805 350.206055,214.151489 349.054749,215.116455 
	C348.999268,215.089722 349.114014,215.123596 348.732239,215.141998 
	C346.019928,215.999146 343.550537,216.574326 341.380585,217.717743 
	C321.430206,228.230240 293.811462,221.982803 278.510162,205.121017 
	C275.084015,201.345444 271.906738,197.289642 269.033630,193.077255 
	C261.631989,182.225418 250.205719,178.882233 238.367752,176.415009 
	C236.456802,176.016739 234.196823,177.293121 232.098175,177.795380 
	C232.078537,178.437256 232.058899,179.079132 232.039261,179.721008 
	C236.420700,180.803009 240.802139,181.884995 245.356583,182.999664 
	C245.529587,183.032318 245.876251,183.094238 246.082642,183.251282 
	C246.585114,183.584045 246.881210,183.759781 247.348236,183.979218 
	C247.519150,184.022934 247.867111,184.081360 248.084900,184.236450 
	C248.612640,184.564697 248.922607,184.737869 249.453674,185.047653 
	C250.085770,185.485184 250.496719,185.786102 251.091919,186.243256 
	C251.525604,186.603424 251.788635,186.787979 252.055664,186.977905 
	C252.046051,187.002655 252.036392,186.951248 252.198883,187.142441 
	C252.622650,187.540710 252.883942,187.747787 253.340485,188.062042 
	C253.781967,188.357101 253.943481,188.601074 254.161163,189.107620 
	C254.546112,189.540009 254.790161,189.765915 255.013458,189.999634 
	C254.992722,190.007446 255.007919,189.965820 255.167480,190.161377 
	C255.590210,190.565277 255.853378,190.773636 256.409058,191.144714 
	C259.093109,194.195267 261.734253,196.913467 263.832062,200.000854 
	C272.025696,212.059555 282.642212,220.906326 296.406738,226.046036 
	C306.626709,229.862198 317.133881,230.471069 328.271057,229.959976 
	C331.826691,229.581207 335.223663,229.839844 337.999847,228.649979 
	C341.905731,226.975922 345.351013,224.227310 348.993988,221.969193 
	C348.994690,222.000168 348.935425,221.982117 349.309509,221.947632 
	C353.456207,219.258652 357.228790,216.604156 361.005951,213.979858 
	C361.010529,214.010040 360.950104,214.001068 361.227844,213.877853 
	C361.996429,213.143600 362.487274,212.532562 362.988708,211.953903 
	C362.999329,211.986282 362.933044,212.002228 363.133728,211.847839 
	C363.555634,211.439590 363.776855,211.185699 363.985229,210.963623 
	C363.972412,210.995407 363.910736,210.965500 364.232666,210.881470 
	C365.353790,209.831039 366.153015,208.864670 366.973602,207.924942 
	C366.994934,207.951584 366.938507,207.989975 367.139038,207.838455 
	C367.559418,207.434952 367.779266,207.182968 367.989410,206.964203 
	C367.979706,206.997406 367.914276,206.974838 368.198242,206.863831 
	C368.984497,206.144379 369.486755,205.535934 369.995758,204.962036 
	C370.002472,204.996567 369.933319,205.009598 370.131683,204.852142 
	C370.558350,204.446274 370.786621,204.197861 371.015198,203.983612 
	C371.015442,204.017746 370.947266,204.013870 371.142212,203.862946 
	C371.588104,203.498093 371.816010,203.261917 372.017395,203.009583 
	C372.013885,203.015656 372.001129,203.021469 372.319031,202.904755 
	C373.426788,201.521057 374.216614,200.254074 375.015564,198.790939 
	C375.024719,198.594788 375.005402,198.202545 375.191010,197.988098 
	C375.585907,197.458557 375.795197,197.143448 376.106262,196.605408 
	C376.464722,195.978897 376.721497,195.575333 377.164124,194.970612 
	C377.567383,194.475784 377.784790,194.182114 378.011108,193.724670 
	C378.020020,193.560913 377.991272,193.234192 378.180237,193.007294 
	C378.577698,192.446060 378.786194,192.111725 379.008057,191.628479 
	C379.021484,191.479599 379.077393,191.185898 379.258789,190.965668 
	C379.622498,190.412750 379.804840,190.080063 380.014587,189.576172 
	C380.041992,189.404984 380.159607,189.078766 380.315552,188.896484 
	C380.667511,188.461304 380.843475,188.195129 380.995850,187.956345 
	C380.992340,187.996979 380.911072,187.989807 381.213348,187.817841 
	C382.015564,186.384384 382.515503,185.122879 383.066406,183.657776 
	C383.117371,183.454147 383.259186,183.059006 383.484375,182.910278 
	C383.817444,181.814865 383.925354,180.868195 384.067017,179.606750 
	C384.151001,178.873245 384.201233,178.454514 384.438660,177.851288 
	C384.742798,176.738235 384.859772,175.809677 385.020996,174.459717 
	C385.122040,172.344040 385.178833,170.649750 385.382568,168.608337 
	C385.699402,163.197800 385.869324,158.134369 386.060059,152.729370 
	C386.133789,151.935226 386.186646,151.482635 386.482117,150.855499 
	C386.946899,149.962204 387.169037,149.243469 387.413696,148.441284 
	C387.436279,148.357819 387.604248,148.398941 387.990540,148.496567 
	C391.582886,146.707245 394.788940,144.820297 397.996307,142.963654 
	C397.997589,142.993958 397.940887,142.972443 398.208862,142.985916 
	C398.655609,143.004166 398.834381,143.008926 399.259583,143.030624 
	C399.505951,143.047562 399.999664,143.032852 400.307129,143.187561 
	C406.009430,142.694412 407.795563,144.964584 408.303436,150.485229 
	C409.888428,167.713669 407.607422,184.057404 399.735352,199.571533 
	C398.412628,202.178299 397.827515,205.159363 396.608032,208.118500 
	C392.415131,212.892288 388.515778,217.515060 384.616455,222.137833 
	C384.078430,221.811554 383.540436,221.485260 383.002411,221.158981 
	C383.002411,220.083298 383.002411,219.007599 383.025818,217.717896 
	C383.049255,217.503891 383.208069,217.102798 383.531677,216.991592 
	C389.532593,213.370407 391.689972,207.664413 388.954559,203.115250 
	C386.981720,199.834351 383.765381,199.288055 380.723145,200.778870 
	C377.456604,202.379623 378.460205,205.068939 380.213745,207.492355 
	C380.592834,208.016266 380.750763,208.700241 380.909607,209.592545 
	C380.225281,211.492386 379.641846,213.110184 379.008850,215.157715 
	C378.870636,216.155472 378.782013,216.723465 378.400055,217.295105 
	C377.735321,217.180588 377.363892,217.062424 376.773926,216.882996 
	C376.031403,217.076797 375.507477,217.331848 375.147430,217.559326 
	C375.311340,217.531754 375.512360,217.796524 375.153900,217.914429 
	C371.885529,221.141769 368.975586,224.251205 366.018372,227.512436 
	C365.822632,227.862808 365.631836,227.919968 365.093109,227.967773 
	C364.254761,228.492935 363.721985,228.886047 363.152344,229.196960 
	C363.115479,229.114746 363.208893,229.271667 362.871277,229.342651 
	C360.191071,229.983932 357.848450,230.554214 355.207092,231.197235 
	C354.936432,232.261749 354.592255,233.615463 354.456299,234.150085 
	C351.578064,234.539551 349.306122,234.846985 346.994080,235.217285 
	C346.953979,235.280151 346.825806,235.203888 346.536926,235.359772 
	C345.833435,236.011307 345.418854,236.506973 344.701172,237.153717 
	C340.784210,238.004822 336.693695,237.864182 333.658630,239.585052 
	C327.860870,242.872314 322.793213,241.903198 317.233215,238.860748 
	C316.777069,238.589340 316.599640,238.472916 316.385071,238.370636 
	C316.347900,238.384766 316.212616,238.589340 316.142487,238.956131 
	C316.032135,239.568619 315.991943,239.814316 315.646393,240.201141 
	C312.900848,241.563904 310.460663,242.785507 307.694153,243.960999 
	C306.933105,243.850281 306.498352,243.785660 305.956909,243.390167 
	C303.377045,236.345367 295.454132,239.286667 291.532715,235.024673 
	C290.892883,234.329254 289.475677,234.277008 288.389648,234.101578 
	C287.985260,234.036240 287.495239,234.459366 287.052856,234.677170 
	C281.943848,237.192398 280.893066,240.132446 282.833984,246.158447 
	C282.445923,246.528122 282.234467,246.749069 281.700195,246.880920 
	C278.563110,245.107056 275.732300,243.472672 272.958069,241.747253 
	C265.286713,236.976151 257.341553,232.540253 252.291687,224.979370 
	C253.729065,225.064499 254.769577,225.142929 256.094727,225.400513 
	C257.257935,226.318924 258.135498,227.059280 259.015106,227.797195 
	C261.654694,230.011520 264.156189,232.424118 266.971252,234.386856 
	C270.288361,236.699585 273.357300,235.664108 275.480286,232.495850 
	C277.811890,229.016266 275.552155,228.001724 272.470703,227.366562 
	C271.795044,227.227310 271.379456,225.826462 270.846863,224.635529 
	C270.682098,219.248871 265.405609,220.361282 263.120209,217.447998 
	C262.640045,213.131882 254.061493,205.335251 250.195419,205.331329 
	C247.021225,205.328110 244.751236,208.092041 245.268112,211.381577 
	C245.956573,215.763092 249.266281,217.139389 253.021820,218.300964 
	C252.058990,220.086456 251.052078,221.606003 249.765747,222.927811 
	C248.183533,221.299683 246.883942,219.866364 245.577316,218.439514 
	C243.013290,215.639557 240.445343,212.843216 237.879028,210.045380 
	C237.879028,210.045380 237.945251,210.023148 237.944031,209.663910 
	C237.216858,207.127533 236.775604,204.800140 235.718765,202.797607 
	C228.838577,189.760635 226.324615,175.738541 225.993134,161.187561 
	C225.902634,157.214966 225.763229,153.243484 225.646271,149.271500 
	C225.335190,149.231140 225.189774,149.054474 225.496445,148.337006 
	C226.558090,147.331131 227.333282,146.729813 227.278946,146.771957 
	C228.294907,149.290756 229.229141,151.606949 230.125183,153.958435 
	C230.086975,153.993744 230.013077,153.920502 230.156784,154.125397 
	C230.555771,154.542892 230.811050,154.755508 231.038544,154.979904 
	C231.010757,154.991669 231.030502,154.934662 231.181931,155.141571 
	C231.597855,155.563614 231.862350,155.778732 232.330551,156.046661 
	C232.534256,156.099457 232.947159,156.181015 233.112122,156.342346 
	C233.513199,156.703186 233.770020,156.870926 234.455750,157.053543 
	C235.959183,157.108276 237.054443,157.116379 238.424408,157.269012 
	C240.121490,157.268570 241.543869,157.123566 243.369843,156.942154 
	C247.197311,156.009506 250.621185,155.113266 254.378265,154.175491 
	C255.157547,154.097122 255.603592,154.060287 256.281982,154.026321 
	C256.514343,154.029190 256.978638,154.009384 257.233582,154.015335 
	C257.657074,153.999466 257.825653,153.977631 258.320007,154.135239 
	C269.148010,154.193527 279.650208,154.072357 290.495422,153.962646 
	C295.387787,154.704865 299.948151,155.373840 304.483582,156.182739 
	C309.651428,157.104446 314.797058,158.150986 320.084656,159.337601 
	C323.908905,158.378006 322.818054,156.145172 320.907501,154.592926 
	C319.315979,153.299850 317.093689,152.675461 315.059326,152.054291 
	C307.387177,149.711624 299.677704,147.491165 291.982208,145.224945 
	C292.421936,144.888855 292.861664,144.552765 293.301422,144.216660 
	C291.870880,141.467056 290.440338,138.717438 288.872345,135.654816 
	C288.495331,134.000809 288.255768,132.659790 288.436890,131.260818 
	C290.271729,131.137238 291.685852,131.071609 293.300232,131.009521 
	C293.500519,131.013062 293.901123,131.009445 294.169006,131.063507 
	C294.612823,131.164871 294.788757,131.212158 295.139801,131.505386 
	C296.591583,131.816757 297.868256,131.882172 299.432129,131.993561 
	C300.106262,132.062500 300.493225,132.085464 301.074585,132.274261 
	C301.555908,132.621841 301.842834,132.803604 302.341797,133.044647 
	C302.553833,133.103943 302.970764,133.245728 303.180725,133.519806 
	C304.963165,134.192642 306.535614,134.591415 308.312622,135.037079 
	C308.517181,135.083984 308.920319,135.200562 309.099609,135.501404 
	C309.764984,136.248383 310.290344,137.111923 310.730438,137.070435 
	C312.973175,136.859070 315.193848,136.413651 317.422241,136.050156 
	C316.376434,134.413727 315.401306,132.725510 314.255249,131.162613 
	C313.677185,130.374298 312.789429,129.813095 311.777924,128.914978 
	C314.967804,128.914978 317.548523,128.914978 320.418060,128.964722 
	C321.096466,129.045547 321.485992,129.076614 322.068909,129.276581 
	C322.551086,129.627014 322.839935,129.808548 323.336182,130.049438 
	C323.543579,130.108795 323.962006,130.213928 324.139374,130.366455 
	C324.565491,130.710327 324.834930,130.865799 325.480988,131.024689 
	C329.570923,133.313461 333.304993,135.562943 337.186890,138.032837 
	C337.589264,138.497772 337.843811,138.742310 338.358490,139.131622 
	C339.417206,140.151657 340.215790,141.026886 341.167084,142.105301 
	C341.572205,142.533951 341.824554,142.759399 342.043427,142.984558 
	C342.009918,142.984268 342.018738,142.917831 342.170502,143.114838 
	C342.542023,143.562347 342.788849,143.782455 343.047974,143.947357 
	C343.033173,143.922562 343.090729,143.918015 343.122864,144.245178 
	C343.803314,145.360641 344.451630,146.148972 345.051025,146.964478 
	C345.002136,146.991669 345.093414,146.925720 345.070068,147.332031 
	C345.313934,149.181351 345.311249,150.744492 345.891510,152.048157 
	C350.058533,161.410385 348.502045,169.990936 342.654205,178.089279 
	C340.749542,180.726929 338.953308,183.442825 337.094482,186.123138 
	C337.081512,186.123322 337.073486,186.098724 336.696106,186.115875 
	C329.894165,188.057480 323.469666,189.981918 316.774536,191.901550 
	C316.324921,191.919678 316.145905,191.942596 315.753052,191.936249 
	C315.539154,191.906982 315.111053,191.853088 314.923523,191.560974 
	C309.785980,189.244156 304.923950,186.927002 299.826050,185.394318 
	C298.502533,184.996368 296.441650,187.050949 294.719452,187.979034 
	C295.510437,189.309250 296.301453,190.639465 297.057556,191.968262 
	C297.022705,191.966827 297.027985,191.897232 297.165771,192.190399 
	C298.201996,192.994232 299.100403,193.504913 299.994080,194.012161 
	C299.989349,194.008728 299.985504,193.997833 300.154938,194.303406 
	C302.569122,195.408081 304.813873,196.207184 307.369690,197.044205 
	C308.096649,197.119736 308.512573,197.157364 309.144226,197.477982 
	C315.563660,201.273575 322.147888,200.590149 328.523499,198.848190 
	C333.832977,197.397537 339.405273,195.765411 341.978973,189.942322 
	C341.995117,189.969070 341.933868,189.981613 342.117920,189.883850 
	C342.539001,189.639267 342.760071,189.471420 343.222900,189.205170 
	C343.655548,189.088165 343.830505,189.048492 344.336426,188.907990 
	C346.094513,186.842850 347.521667,184.878525 348.969971,182.938522 
	C348.991150,182.962845 348.934265,182.993210 349.131714,182.842682 
	C349.582336,182.476135 349.808319,182.234695 350.009338,181.993713 
	C350.011566,182.019623 349.963318,182.000229 350.250488,181.854218 
	C351.033203,180.801559 351.528717,179.894928 352.073547,178.753510 
	C352.122833,178.518753 352.205750,178.046204 352.360046,177.869568 
	C352.707855,177.445160 352.867340,177.177094 353.040100,176.685043 
	C353.087433,176.481323 353.167847,176.070831 353.328613,175.888641 
	C353.692505,175.451874 353.860016,175.175690 354.032898,174.672424 
	C354.073822,174.466919 354.163239,174.057480 354.321289,173.886719 
	C354.680695,173.478394 354.852722,173.221191 354.992920,172.976074 
	C354.990479,173.007797 354.929840,172.988571 355.232910,172.818756 
	C356.004089,170.051987 356.472229,167.455017 356.987305,164.542999 
	C357.094849,163.808167 357.155487,163.388382 357.306824,162.784378 
	C357.336182,162.079315 357.274841,161.558487 357.152161,160.699524 
	C357.045105,159.905579 356.999390,159.449738 357.135284,158.666473 
	C358.373230,153.343689 357.260468,149.113205 352.987549,146.013641 
	C353.007721,146.023132 352.966187,146.039520 352.939819,145.674103 
	C352.429016,144.084656 352.132019,142.739670 351.431885,141.654877 
	C341.953064,126.968346 327.212158,121.218651 311.008972,118.015900 
	C298.313721,115.506523 285.612427,116.208519 272.474731,118.059731 
	C262.699677,119.988235 253.283844,121.596680 244.063644,123.966301 
	C237.589310,125.630219 231.930435,128.927582 230.617615,136.889404 
	C229.498352,136.031723 228.742172,135.452286 227.986023,134.872849 
	C228.000641,134.509857 228.015259,134.146866 228.295074,133.306000 
	C232.591385,124.801682 236.648483,116.788055 240.614395,108.729553 
	C241.023407,107.898476 240.888489,106.799713 241.005951,105.825157 
M277.243896,237.958542 
	C276.806000,238.532822 276.368103,239.107101 275.930237,239.681396 
	C276.467438,239.913910 277.004608,240.146423 277.541809,240.378937 
	C277.597656,239.643036 277.653503,238.907135 277.243896,237.958542 
z"/>
<path fill="#2C538E" opacity="1.000000" stroke="none" 
	d="
M283.001373,246.000870 
	C280.893066,240.132446 281.943848,237.192398 287.052856,234.677170 
	C287.495239,234.459366 287.985260,234.036240 288.389648,234.101578 
	C289.475677,234.277008 290.892883,234.329254 291.532715,235.024673 
	C295.454132,239.286667 303.377045,236.345367 305.673615,243.581879 
	C303.696838,244.057739 301.896637,244.011063 299.953156,243.717041 
	C299.525970,244.339096 299.242004,245.208511 299.156372,246.342377 
	C304.962921,247.376083 310.571136,248.145325 316.358032,248.943237 
	C316.536713,248.971939 316.898285,248.954758 317.140686,248.969543 
	C317.383057,248.984329 317.868622,248.995682 318.207275,248.963318 
	C319.024872,248.853287 319.570038,248.896454 319.971191,248.676697 
	C321.565613,247.803314 323.115082,246.847855 324.681183,245.922791 
	C323.093994,244.947464 321.558990,243.865646 319.893494,243.050201 
	C319.244659,242.732529 318.302063,243.014908 317.373352,242.768448 
	C317.182892,242.338531 317.112335,242.164093 317.098206,241.614777 
	C317.273712,240.498505 317.392822,239.757126 317.511932,239.015732 
	C322.793213,241.903198 327.860870,242.872314 333.658630,239.585052 
	C336.693695,237.864182 340.784210,238.004822 344.714783,237.166733 
	C345.031525,237.028702 345.059052,237.054764 345.033081,237.427582 
	C344.973602,238.298096 344.940063,238.795761 344.638855,239.415192 
	C343.573944,239.988403 342.776733,240.439850 341.712463,240.986328 
	C340.994080,241.404907 340.542816,241.728455 339.795227,241.935837 
	C336.375519,242.783173 333.252167,243.746689 328.859131,245.101883 
	C330.591705,247.182434 332.459961,249.425873 334.436890,251.799881 
	C331.422333,253.253128 328.712585,254.559433 326.002838,255.865738 
	C311.737030,257.487030 297.996490,255.287140 284.325165,249.649155 
	C283.991180,248.445267 283.987305,247.774429 283.835754,246.903793 
	C283.477692,246.449600 283.247864,246.214142 282.999329,245.998810 
	C283.000000,246.000000 283.001373,246.000870 283.001373,246.000870 
z"/>
<path fill="#2C538E" opacity="1.000000" stroke="none" 
	d="
M347.034119,235.154419 
	C349.306122,234.846985 351.578064,234.539551 354.456299,234.150085 
	C354.592255,233.615463 354.936432,232.261749 355.207092,231.197235 
	C357.848450,230.554214 360.191071,229.983932 362.782166,229.674515 
	C363.638702,231.290680 364.246735,232.645981 364.854767,234.001282 
	C364.569946,234.318329 364.285095,234.635376 364.000275,234.952423 
	C362.967743,234.318756 362.004303,233.461304 360.882996,233.115143 
	C359.789246,232.777481 358.143585,232.487656 357.459259,233.050720 
	C356.768433,233.619156 356.456482,235.537262 356.905243,236.356384 
	C357.372772,237.209778 359.187256,238.133392 359.994904,237.847137 
	C362.910339,236.813797 365.649841,235.283951 369.032043,233.665894 
	C366.457245,231.732758 364.823242,230.505966 363.189240,229.279160 
	C363.721985,228.886047 364.254761,228.492935 365.099152,227.856812 
	C365.410797,227.613785 365.729706,227.336151 365.729706,227.336151 
	C365.729706,227.336151 366.065643,227.360641 366.065643,227.360641 
	C368.975586,224.251205 371.885529,221.141769 375.370117,218.163605 
	C376.911865,218.765701 377.878937,219.236496 378.904999,219.736038 
	C378.365112,220.993515 377.881104,222.120895 376.931641,224.332428 
	C379.549744,221.572113 381.276093,219.752014 383.002411,217.931915 
	C383.002411,219.007599 383.002411,220.083298 383.002411,221.158981 
	C383.540436,221.485260 384.078430,221.811554 384.616455,222.137833 
	C388.515778,217.515060 392.415131,212.892288 396.921112,208.150635 
	C397.735840,208.052124 397.943909,208.072479 398.151978,208.092834 
	C396.119263,211.571121 394.485107,215.371094 391.983246,218.470734 
	C382.325104,230.436630 371.210175,240.794876 357.112732,247.410248 
	C353.161865,249.264206 348.881165,250.415314 344.078979,251.743774 
	C341.595245,251.598694 339.784332,251.598694 337.973450,251.598694 
	C337.872314,251.196198 337.771210,250.793716 337.670074,250.391220 
	C338.769958,249.552750 339.869812,248.714264 341.253113,247.716888 
	C342.681732,246.697189 343.826935,245.836395 345.374451,245.019974 
	C346.825531,244.975845 347.874359,244.887360 349.249664,244.727158 
	C349.763794,243.428131 349.951385,242.200836 350.073669,240.630402 
	C349.016968,238.576309 348.025543,236.865372 347.034119,235.154419 
z"/>
<path fill="#34568A" opacity="1.000000" stroke="none" 
	d="
M398.442749,207.898315 
	C397.943909,208.072479 397.735840,208.052124 397.214661,207.999634 
	C397.827515,205.159363 398.412628,202.178299 399.735352,199.571533 
	C407.607422,184.057404 409.888428,167.713669 408.303436,150.485229 
	C407.795563,144.964584 406.009430,142.694412 400.531189,142.869995 
	C402.202423,142.114838 403.957062,141.831955 406.396088,141.438705 
	C400.196991,129.363892 390.658081,125.111931 377.390350,127.043953 
	C376.950623,128.473785 376.360779,130.391754 375.816437,132.161804 
	C377.641296,132.673431 378.831757,133.007202 380.022217,133.340973 
	C377.744080,135.686142 374.944122,135.458572 373.948059,132.795319 
	C372.792542,129.705673 374.042694,126.271973 377.642822,125.142540 
	C384.325897,123.045937 390.737671,124.146912 396.683960,127.837547 
	C398.682800,129.078140 400.635712,130.392776 402.609619,131.673569 
	C403.092316,131.308929 403.574982,130.944290 404.057648,130.579666 
	C402.109711,125.983574 400.493256,121.207634 398.123413,116.840492 
	C395.604706,112.199013 392.320862,107.977448 389.479095,103.503952 
	C388.517426,101.990143 387.884979,100.267212 387.073578,98.275055 
	C395.131500,104.817261 400.023987,114.040749 403.644745,123.599541 
	C408.416840,136.197937 411.662811,149.348434 411.006348,163.093216 
	C410.252106,178.884918 406.625031,193.879120 398.442749,207.898315 
z"/>
<path fill="#31558D" opacity="1.000000" stroke="none" 
	d="
M230.163376,153.923126 
	C229.229141,151.606949 228.294907,149.290756 227.278946,146.771957 
	C227.333282,146.729813 226.558090,147.331131 225.541992,148.154068 
	C225.964691,144.010544 226.628296,139.645401 227.638962,135.076569 
	C228.742172,135.452286 229.498352,136.031723 230.617615,136.889404 
	C231.930435,128.927582 237.589310,125.630219 244.063644,123.966301 
	C253.283844,121.596680 262.699677,119.988235 272.488647,118.293427 
	C272.945374,118.532227 272.975433,119.000809 272.600037,119.133194 
	C262.528320,121.737167 252.818085,124.155838 243.140121,126.697472 
	C235.719894,128.646164 232.408096,133.381668 234.300995,137.432022 
	C232.662582,139.269989 230.443130,140.616974 230.220749,142.237946 
	C229.695892,146.063614 230.121933,150.019760 230.163376,153.923126 
z"/>
<path fill="#31558D" opacity="1.000000" stroke="none" 
	d="
M283.983398,247.103577 
	C283.987305,247.774429 283.991180,248.445267 283.997040,249.451538 
	C276.033661,245.381729 267.261292,241.967575 260.314667,236.311218 
	C252.293472,229.779877 244.068817,222.934494 238.917755,213.494263 
	C238.464737,212.664047 238.265244,211.695480 237.913513,210.418274 
	C240.445343,212.843216 243.013290,215.639557 245.577316,218.439514 
	C246.883942,219.866364 248.183533,221.299683 249.880295,223.169952 
	C250.814468,224.064117 251.354645,224.518387 251.894821,224.972672 
	C257.341553,232.540253 265.286713,236.976151 272.958069,241.747253 
	C275.732300,243.472672 278.563110,245.107056 281.926575,246.886658 
	C282.485046,246.990341 282.938965,246.992554 283.200317,247.018188 
	C283.635529,247.063721 283.809448,247.083649 283.983398,247.103577 
z"/>
<path fill="#31558D" opacity="1.000000" stroke="none" 
	d="
M352.896088,72.700455 
	C344.533295,71.131210 335.922058,69.504814 327.465942,67.286957 
	C317.942413,64.789154 308.808167,67.485931 299.551300,68.644867 
	C294.962219,69.219406 290.423157,70.193626 285.444824,71.008057 
	C290.193878,69.336060 295.245880,66.908478 300.546600,66.087807 
	C316.408905,63.632000 332.164520,64.229797 347.407684,69.981728 
	C349.220917,70.665947 350.948700,71.576553 352.896088,72.700455 
z"/>
<path fill="#31558D" opacity="1.000000" stroke="none" 
	d="
M225.306885,149.531128 
	C225.763229,153.243484 225.902634,157.214966 225.993134,161.187561 
	C226.324615,175.738541 228.838577,189.760635 235.718765,202.797607 
	C236.775604,204.800140 237.216858,207.127533 237.941986,209.698792 
	C236.922836,209.065613 235.500534,208.218475 234.949493,206.982803 
	C230.128052,196.171249 225.881607,185.158951 225.036987,173.183334 
	C224.597443,166.951187 224.251968,160.709427 224.043869,154.466019 
	C223.992310,152.919571 224.640808,151.349792 225.306885,149.531128 
z"/>
<path fill="#3D6091" opacity="1.000000" stroke="none" 
	d="
M340.969696,247.875793 
	C339.869812,248.714264 338.769958,249.552750 337.670074,250.391220 
	C337.771210,250.793716 337.872314,251.196198 337.973450,251.598694 
	C339.784332,251.598694 341.595245,251.598694 343.700745,251.733307 
	C338.273834,253.241425 332.552338,254.614944 326.416809,255.927094 
	C328.712585,254.559433 331.422333,253.253128 334.436890,251.799881 
	C332.459961,249.425873 330.591705,247.182434 328.859131,245.101883 
	C333.252167,243.746689 336.375519,242.783173 339.798950,242.262863 
	C340.747223,243.191620 341.395447,243.677170 342.191528,244.244629 
	C342.339386,244.326538 342.675690,244.360641 342.558960,244.629211 
	C340.981232,245.552963 339.520203,246.208145 337.743286,246.834351 
	C336.862457,246.987427 336.297455,247.169449 335.732483,247.351486 
	C335.744507,247.531631 335.756561,247.711792 335.768585,247.891937 
	C336.507538,247.891937 337.246490,247.891937 338.359314,247.900208 
	C339.478699,247.897583 340.224182,247.886688 340.969696,247.875793 
z"/>
<path fill="#31558D" opacity="1.000000" stroke="none" 
	d="
M284.643768,71.008652 
	C283.184418,72.291618 281.364624,73.585350 279.496613,74.805283 
	C274.020630,78.381523 268.561066,81.985321 263.015991,85.451820 
	C261.368195,86.481934 259.459015,87.093948 257.301300,87.930923 
	C259.890381,85.322304 262.522949,82.126045 265.876801,80.160538 
	C271.772400,76.705444 278.109253,74.003220 284.643768,71.008652 
z"/>
<path fill="#31558D" opacity="1.000000" stroke="none" 
	d="
M240.692657,105.870255 
	C240.888489,106.799713 241.023407,107.898476 240.614395,108.729553 
	C236.648483,116.788055 232.591385,124.801682 228.278229,133.033615 
	C229.316544,129.313629 230.297440,125.229683 232.038376,121.500534 
	C234.527191,116.169388 237.571991,111.097794 240.692657,105.870255 
z"/>
<path fill="#31558D" opacity="1.000000" stroke="none" 
	d="
M247.588287,96.923508 
	C246.175537,99.544304 244.398636,102.172226 242.289307,104.901901 
	C243.712601,102.312637 245.468369,99.621628 247.588287,96.923508 
z"/>
<path fill="#31558D" opacity="1.000000" stroke="none" 
	d="
M254.624893,89.957664 
	C253.186066,91.878601 251.396210,93.840225 249.276138,95.895584 
	C250.721909,93.992325 252.497879,91.995338 254.624893,89.957664 
z"/>
<path fill="#34568A" opacity="1.000000" stroke="none" 
	d="
M374.967041,85.637024 
	C373.080933,84.590950 371.078735,83.224693 369.011871,81.512276 
	C370.915131,82.549698 372.883057,83.933273 374.967041,85.637024 
z"/>
<path fill="#31558D" opacity="1.000000" stroke="none" 
	d="
M360.978027,76.673836 
	C359.499756,76.267220 357.858643,75.544876 356.065521,74.511642 
	C357.547424,74.919876 359.181274,75.638992 360.978027,76.673836 
z"/>
<path fill="#31558D" opacity="1.000000" stroke="none" 
	d="
M368.045288,80.663803 
	C366.551300,80.188301 364.902466,79.394577 363.135284,78.261459 
	C364.641449,78.729912 366.265930,79.537743 368.045288,80.663803 
z"/>
<path fill="#34568A" opacity="1.000000" stroke="none" 
	d="
M384.927551,94.878349 
	C383.621216,94.034378 382.362762,92.844223 381.088806,91.298470 
	C382.374054,92.139305 383.674744,93.335732 384.927551,94.878349 
z"/>
<path fill="#34568A" opacity="1.000000" stroke="none" 
	d="
M380.986877,90.592560 
	C380.139771,90.459991 379.220001,89.993416 378.148743,89.239204 
	C378.969574,89.387222 379.941864,89.822891 380.986877,90.592560 
z"/>
<path fill="#31558D" opacity="1.000000" stroke="none" 
	d="
M256.646362,87.970673 
	C256.478760,88.531860 255.978546,89.139214 255.197052,89.864296 
	C255.381760,89.326965 255.847717,88.671906 256.646362,87.970673 
z"/>
<path fill="#31558D" opacity="1.000000" stroke="none" 
	d="
M354.990997,73.762375 
	C354.812439,73.875282 354.552795,73.716934 354.139465,73.376976 
	C354.275574,73.323845 354.583649,73.422424 354.990997,73.762375 
z"/>
<path fill="#34568A" opacity="1.000000" stroke="none" 
	d="
M386.984436,97.747162 
	C386.820709,97.780022 386.566956,97.555389 386.149567,97.135254 
	C386.288757,97.123062 386.591583,97.306366 386.984436,97.747162 
z"/>
<path fill="#34568A" opacity="1.000000" stroke="none" 
	d="
M377.946594,88.768883 
	C377.804260,88.778603 377.556824,88.542458 377.147522,88.106598 
	C377.270905,88.112267 377.556152,88.317642 377.946594,88.768883 
z"/>
<path fill="#31558D" opacity="1.000000" stroke="none" 
	d="
M248.753006,96.031326 
	C248.783478,96.195320 248.558838,96.442757 248.135895,96.843948 
	C248.124344,96.703407 248.311127,96.409088 248.753006,96.031326 
z"/>
<path fill="#34568A" opacity="1.000000" stroke="none" 
	d="
M385.953064,96.774742 
	C385.813019,96.787170 385.560333,96.559669 385.146179,96.133865 
	C385.269989,96.135307 385.555206,96.335060 385.953064,96.774742 
z"/>
<path fill="#34568A" opacity="1.000000" stroke="none" 
	d="
M376.005219,86.760277 
	C375.856049,86.782211 375.593201,86.555573 375.161133,86.130943 
	C375.291809,86.125870 375.591675,86.318787 376.005219,86.760277 
z"/>
<path fill="#31558D" opacity="1.000000" stroke="none" 
	d="
M362.981842,77.747826 
	C362.794434,77.851654 362.537567,77.677864 362.128937,77.316422 
	C362.270264,77.270134 362.582031,77.383942 362.981842,77.747826 
z"/>
<path fill="#000000" opacity="1.000000" stroke="none" 
	d="
M230.125183,153.958435 
	C230.121933,150.019760 229.695892,146.063614 230.220749,142.237946 
	C230.443130,140.616974 232.662582,139.269989 234.300995,137.432022 
	C232.408096,133.381668 235.719894,128.646164 243.140121,126.697472 
	C252.818085,124.155838 262.528320,121.737167 272.845459,119.439713 
	C276.495728,119.228493 279.558044,118.346390 282.548859,118.544441 
	C295.008606,119.369514 307.747406,117.814041 319.818329,122.212067 
	C331.764801,126.564743 343.351257,131.532272 350.091431,143.418976 
	C350.699371,144.491119 351.991699,145.175201 352.966187,146.039520 
	C352.966187,146.039520 353.007721,146.023132 352.966248,146.406891 
	C354.267731,150.858414 355.610687,154.926163 356.953674,158.993912 
	C356.999390,159.449738 357.045105,159.905579 357.094513,161.019638 
	C357.137512,162.108109 357.176819,162.538361 357.216125,162.968597 
	C357.155487,163.388382 357.094849,163.808167 356.649017,164.754395 
	C355.819183,167.850082 355.374512,170.419327 354.929840,172.988571 
	C354.929840,172.988571 354.990479,173.007797 354.733673,173.053864 
	C354.372314,173.419098 354.267792,173.738297 354.163239,174.057480 
	C354.163239,174.057480 354.073822,174.466919 353.770386,174.770676 
	C353.367279,175.406555 353.267548,175.738693 353.167847,176.070831 
	C353.167847,176.070831 353.087433,176.481323 352.787964,176.783569 
	C352.394257,177.405930 352.299988,177.726059 352.205750,178.046204 
	C352.205750,178.046204 352.122833,178.518753 351.755432,178.868011 
	C350.913147,180.144913 350.438232,181.072571 349.963318,182.000229 
	C349.963318,182.000229 350.011566,182.019623 349.758057,182.075989 
	C349.314423,182.419312 349.124359,182.706253 348.934265,182.993210 
	C348.934265,182.993210 348.991150,182.962845 348.609863,182.945007 
	C346.820923,184.954391 345.413208,186.981613 344.005493,189.008850 
	C343.830505,189.048492 343.655548,189.088165 342.993347,189.206665 
	C342.224243,189.442657 342.033508,189.674683 341.933868,189.981613 
	C341.933868,189.981613 341.995117,189.969070 341.619080,189.947144 
	C335.958618,194.098877 330.118073,197.356781 323.374725,197.899704 
	C318.609131,198.283386 313.747314,197.472549 308.928467,197.194977 
	C308.512573,197.157364 308.096649,197.119736 307.191803,196.729721 
	C304.463745,195.584167 302.224609,194.791000 299.985504,193.997833 
	C299.985504,193.997833 299.989349,194.008728 299.885254,193.692871 
	C298.863403,192.883774 297.945709,192.390503 297.027985,191.897232 
	C297.027985,191.897232 297.022705,191.966827 297.052856,191.578583 
	C296.841766,186.876831 298.811066,186.554581 302.278870,188.039459 
	C306.442688,189.822388 310.753601,191.261826 315.237000,192.805206 
	C315.765778,192.575012 315.930389,192.310043 315.966919,191.965530 
	C316.145905,191.942596 316.324921,191.919678 316.971832,192.211639 
	C325.014526,193.530624 331.783997,192.075012 337.073486,186.098724 
	C337.073486,186.098724 337.081512,186.123322 337.449890,186.125336 
	C344.649445,181.812500 348.397552,175.052933 349.664490,167.634583 
	C350.877747,160.530518 350.891052,152.869278 345.093414,146.925720 
	C345.093414,146.925720 345.002136,146.991669 345.046631,146.628525 
	C344.424347,145.482925 343.757538,144.700470 343.090729,143.918015 
	C343.090729,143.918015 343.033173,143.922562 342.971436,143.690247 
	C342.612701,143.277893 342.315704,143.097870 342.018738,142.917831 
	C342.018738,142.917831 342.009918,142.984268 341.947693,142.734360 
	C341.595093,142.290344 341.304718,142.096237 341.014343,141.902115 
	C340.215790,141.026886 339.417206,140.151657 338.252533,138.879944 
	C337.603943,138.259796 337.321503,138.036118 337.039032,137.812424 
	C333.304993,135.562943 329.570923,133.313461 325.371704,130.782898 
	C324.591675,130.405853 324.276825,130.309891 323.962006,130.213928 
	C323.962006,130.213928 323.543579,130.108795 323.246704,129.762390 
	C322.591705,129.313217 322.233643,129.210449 321.875549,129.107681 
	C321.485992,129.076614 321.096466,129.045547 320.208313,128.643616 
	C317.575745,127.490852 315.470734,126.133392 313.302979,126.024406 
	C302.592865,125.485992 291.866638,125.257530 281.144165,125.000999 
	C280.459564,124.984619 279.758575,125.653671 278.683228,126.034348 
	C277.539276,126.035576 276.777283,126.006325 275.932861,125.776642 
	C275.548676,125.705299 275.246887,125.834389 274.972961,125.974030 
	C275.000793,125.984581 274.987671,125.926483 274.667847,125.944542 
	C273.923523,125.926521 273.499054,125.890442 272.807343,125.624924 
	C263.224060,127.563347 253.817368,129.419403 244.646240,132.085739 
	C241.830841,132.904266 239.103745,135.562729 237.385559,138.091599 
	C236.193466,139.846146 234.381042,143.354340 238.702087,144.785065 
	C238.356125,145.499176 238.010162,146.213287 237.415436,147.104965 
	C237.429062,148.728424 237.706024,151.428482 237.951614,151.425644 
	C240.327835,151.398041 242.698761,150.916611 245.417419,150.671448 
	C251.490036,149.579865 257.216461,148.381638 263.201843,147.463898 
	C264.228882,147.534973 264.985382,147.213440 265.766815,147.132523 
	C284.212677,145.222534 301.676758,149.620163 318.849548,155.622055 
	C319.542725,155.864319 319.599213,157.928146 319.952332,159.143265 
	C314.797058,158.150986 309.651428,157.104446 304.483582,156.182739 
	C299.948151,155.373840 295.387787,154.704865 290.248352,153.644867 
	C281.581238,153.003220 273.505707,152.548233 265.426300,152.463989 
	C262.954376,152.438202 260.471893,153.429977 257.994232,153.955780 
	C257.825653,153.977631 257.657074,153.999466 257.158630,153.828827 
	C256.569061,153.765396 256.309357,153.894424 256.049652,154.023453 
	C255.603592,154.060287 255.157547,154.097122 253.955444,154.081726 
	C249.789963,154.679398 246.380539,155.329300 242.591400,155.967133 
	C240.857712,156.344864 239.503708,156.734680 238.149719,157.124481 
	C237.054443,157.116379 235.959183,157.108276 234.389038,156.786835 
	C233.591843,156.375992 233.269501,156.278503 232.947159,156.181015 
	C232.947159,156.181015 232.534256,156.099457 232.265717,155.768158 
	C231.674957,155.269470 231.352722,155.102066 231.030502,154.934662 
	C231.030502,154.934662 231.010757,154.991669 230.993958,154.699799 
	C230.655792,154.245453 230.334427,154.082977 230.013077,153.920502 
	C230.013077,153.920502 230.086975,153.993744 230.125183,153.958435 
z"/>
<path fill="#000000" opacity="1.000000" stroke="none" 
	d="
M380.443665,133.277222 
	C378.831757,133.007202 377.641296,132.673431 375.816437,132.161804 
	C376.360779,130.391754 376.950623,128.473785 377.390350,127.043953 
	C390.658081,125.111931 400.196991,129.363892 406.396088,141.438705 
	C403.957062,141.831955 402.202423,142.114838 400.223755,142.715302 
	C399.999664,143.032852 399.505951,143.047562 399.176788,142.830292 
	C398.545380,142.732834 398.243134,142.852631 397.940887,142.972443 
	C397.940887,142.972443 397.997589,142.993958 397.616943,142.994629 
	C394.025635,144.796524 390.814941,146.597717 387.604248,148.398926 
	C387.604248,148.398941 387.436279,148.357819 387.135925,148.527924 
	C386.636871,149.475388 386.438202,150.252716 386.239502,151.030060 
	C386.186646,151.482635 386.133789,151.935226 385.757202,152.932678 
	C385.367554,158.636871 385.301575,163.796158 385.235596,168.955460 
	C385.178833,170.649750 385.122040,172.344040 384.691437,174.621704 
	C384.295563,176.148666 384.273529,177.092224 384.251495,178.035797 
	C384.201233,178.454514 384.151001,178.873245 383.743286,179.773514 
	C383.343597,181.189713 383.301392,182.124359 383.259186,183.059006 
	C383.259186,183.059006 383.117371,183.454147 382.744507,183.797882 
	C381.884796,185.424362 381.397949,186.707092 380.911072,187.989807 
	C380.911072,187.989807 380.992340,187.996979 380.751099,188.062622 
	C380.393127,188.445099 380.276367,188.761932 380.159607,189.078766 
	C380.159607,189.078766 380.041992,189.404984 379.716492,189.707657 
	C379.286469,190.402191 379.181946,190.794052 379.077393,191.185898 
	C379.077393,191.185898 379.021484,191.479599 378.706970,191.676300 
	C378.258698,192.326736 378.125000,192.780457 377.991272,193.234192 
	C377.991272,193.234192 378.020020,193.560913 377.724701,193.743134 
	C377.091248,194.129288 376.753113,194.333206 376.414978,194.537125 
	C376.602722,194.748688 376.790497,194.960236 376.978271,195.171783 
	C376.721497,195.575333 376.464722,195.978897 375.816284,196.645630 
	C375.284882,197.340042 375.145142,197.771301 375.005402,198.202545 
	C375.005402,198.202545 375.024719,198.594788 374.675110,198.929108 
	C373.550690,200.516098 372.775909,201.768784 372.001129,203.021469 
	C372.001129,203.021469 372.013885,203.015656 371.765442,203.086197 
	C371.327087,203.442444 371.137177,203.728165 370.947266,204.013885 
	C370.947266,204.013870 371.015442,204.017746 370.758820,204.069885 
	C370.312561,204.417877 370.122955,204.713730 369.933319,205.009598 
	C369.933319,205.009598 370.002472,204.996567 369.650665,204.989441 
	C368.837341,205.646484 368.375824,206.310669 367.914307,206.974854 
	C367.914276,206.974838 367.979706,206.997406 367.727295,207.039688 
	C367.296082,207.384644 367.117310,207.687302 366.938507,207.989975 
	C366.938507,207.989975 366.994934,207.951584 366.616943,207.930573 
	C365.462860,208.928223 364.686798,209.946869 363.910736,210.965500 
	C363.910736,210.965500 363.972412,210.995407 363.723145,211.042542 
	C363.293579,211.393860 363.113312,211.698044 362.933044,212.002228 
	C362.933044,212.002228 362.999329,211.986282 362.659302,212.004150 
	C361.862854,212.681702 361.406494,213.341385 360.950104,214.001068 
	C360.950104,214.001068 361.010529,214.010040 360.627441,213.967896 
	C356.474701,216.611191 352.705048,219.296661 348.935425,221.982117 
	C348.935425,221.982117 348.994690,222.000168 348.629456,222.007507 
	C341.454559,224.660202 334.644928,227.305542 327.835297,229.950882 
	C317.133881,230.471069 306.626709,229.862198 296.406738,226.046036 
	C282.642212,220.906326 272.025696,212.059555 263.832062,200.000854 
	C261.734253,196.913467 259.093109,194.195267 256.293091,190.907959 
	C255.592407,190.327576 255.300171,190.146698 255.007919,189.965820 
	C255.007919,189.965820 254.992722,190.007446 254.924927,189.753204 
	C254.578156,189.299698 254.299210,189.100433 254.020248,188.901154 
	C253.943481,188.601074 253.781967,188.357101 253.239105,187.814331 
	C252.640472,187.290024 252.338440,187.120636 252.036392,186.951248 
	C252.036392,186.951248 252.046051,187.002655 252.001617,186.686630 
	C251.607346,186.276077 251.257507,186.181549 250.907684,186.087021 
	C250.496719,185.786102 250.085770,185.485184 249.323120,184.773590 
	C248.603333,184.269073 248.235214,184.175217 247.867111,184.081360 
	C247.867111,184.081360 247.519150,184.022934 247.233185,183.707047 
	C246.590240,183.292191 246.233246,183.193207 245.876251,183.094238 
	C245.876251,183.094238 245.529587,183.032318 245.206741,182.672028 
	C243.194336,181.541718 241.504776,180.771698 239.600174,179.903671 
	C240.189484,179.487518 240.439514,179.161880 240.642365,179.189011 
	C252.307190,180.749451 261.291718,186.197983 267.994446,196.189758 
	C271.967743,202.112747 276.868622,207.846542 282.521210,212.119064 
	C294.005524,220.799561 306.990906,225.446564 321.941650,224.754135 
	C332.251984,224.276611 341.043915,221.122040 349.114014,215.123596 
	C349.114014,215.123596 348.999268,215.089722 349.387695,215.087128 
	C350.886169,214.101456 351.996155,213.118408 353.106140,212.135376 
	C353.106171,212.135376 353.118988,212.140488 353.462646,212.147217 
	C355.032959,211.016846 356.259583,209.879745 357.486237,208.742661 
	C357.486237,208.742661 357.658112,208.711212 357.997711,208.507172 
	C360.596375,205.887405 362.855438,203.471664 365.114502,201.055908 
	C365.114502,201.055908 365.002869,201.020813 365.340973,200.882507 
	C366.492920,199.535019 367.306763,198.325851 368.120605,197.116699 
	C368.120605,197.116699 368.118958,197.093582 368.412720,196.912109 
	C373.398956,190.380630 377.574799,183.846420 378.094696,175.593094 
	C378.650635,166.768661 379.457428,157.960052 380.441772,148.933624 
	C382.777222,141.096771 390.499207,140.350159 396.557709,136.245621 
	C394.249725,135.254517 392.657196,134.570648 391.064697,133.886780 
	C391.064697,133.886780 391.030762,133.941360 390.908081,133.624908 
	C388.902069,133.239426 387.018707,133.170410 385.135345,133.101395 
	C383.711914,133.138763 382.288513,133.176132 380.443665,133.277222 
z"/>
<path fill="#2C5087" opacity="1.000000" stroke="none" 
	d="
M320.084656,159.337601 
	C319.599213,157.928146 319.542725,155.864319 318.849548,155.622055 
	C301.676758,149.620163 284.212677,145.222534 265.766815,147.132523 
	C264.985382,147.213440 264.228882,147.534973 263.218140,147.122803 
	C262.990479,146.046326 263.005463,145.591461 263.295105,144.890533 
	C261.715088,144.031525 259.860474,143.418579 258.153320,142.487518 
	C259.880554,139.125504 261.460297,136.081604 263.011902,133.417130 
	C262.649689,135.676849 262.315674,137.557129 261.981628,139.437408 
	C262.363586,139.524689 262.745544,139.611969 263.127533,139.699249 
	C263.645020,138.832382 264.162537,137.965515 264.923523,136.690811 
	C266.732239,138.338593 268.202026,139.878021 269.885834,141.129532 
	C270.766815,141.784332 272.246796,142.486053 273.050415,142.161514 
	C273.921112,141.809921 274.815521,140.293442 274.824890,139.276917 
	C274.847137,136.862518 274.352661,134.443344 274.357849,132.174896 
	C277.527374,134.897507 280.406067,137.471344 283.404785,140.352112 
	C283.984833,142.078033 284.444855,143.497025 284.904907,144.916031 
	C286.598572,144.196167 288.693665,143.841690 289.819611,142.604935 
	C290.397583,141.970093 289.245422,139.760117 288.902618,137.880188 
	C288.956665,136.988220 288.983246,136.478012 289.009827,135.967819 
	C290.440338,138.717438 291.870880,141.467056 293.301422,144.216660 
	C292.861664,144.552765 292.421936,144.888855 291.982208,145.224945 
	C299.677704,147.491165 307.387177,149.711624 315.059326,152.054291 
	C317.093689,152.675461 319.315979,153.299850 320.907501,154.592926 
	C322.818054,156.145172 323.908905,158.378006 320.084656,159.337601 
z"/>
<path fill="#274C81" opacity="1.000000" stroke="none" 
	d="
M348.732239,215.141998 
	C341.043915,221.122040 332.251984,224.276611 321.941650,224.754135 
	C306.990906,225.446564 294.005524,220.799561 282.521210,212.119064 
	C276.868622,207.846542 271.967743,202.112747 267.994446,196.189758 
	C261.291718,186.197983 252.307190,180.749451 240.642365,179.189011 
	C240.439514,179.161880 240.189484,179.487518 239.600174,179.903671 
	C241.504776,180.771698 243.194336,181.541718 245.033737,182.639374 
	C240.802139,181.884995 236.420700,180.803009 232.039261,179.721008 
	C232.058899,179.079132 232.078537,178.437256 232.098175,177.795380 
	C234.196823,177.293121 236.456802,176.016739 238.367752,176.415009 
	C250.205719,178.882233 261.631989,182.225418 269.033630,193.077255 
	C271.906738,197.289642 275.084015,201.345444 278.510162,205.121017 
	C293.811462,221.982803 321.430206,228.230240 341.380585,217.717743 
	C343.550537,216.574326 346.019928,215.999146 348.732239,215.141998 
z"/>
<path fill="#274C81" opacity="1.000000" stroke="none" 
	d="
M352.939819,145.674103 
	C351.991699,145.175201 350.699371,144.491119 350.091431,143.418976 
	C343.351257,131.532272 331.764801,126.564743 319.818329,122.212067 
	C307.747406,117.814041 295.008606,119.369514 282.548859,118.544441 
	C279.558044,118.346390 276.495728,119.228493 273.220856,119.307327 
	C272.975433,119.000809 272.945374,118.532227 272.931458,118.298531 
	C285.612427,116.208519 298.313721,115.506523 311.008972,118.015900 
	C327.212158,121.218651 341.953064,126.968346 351.431885,141.654877 
	C352.132019,142.739670 352.429016,144.084656 352.939819,145.674103 
z"/>
<path fill="#2E5188" opacity="1.000000" stroke="none" 
	d="
M279.065216,126.003860 
	C279.758575,125.653671 280.459564,124.984619 281.144165,125.000999 
	C291.866638,125.257530 302.592865,125.485992 313.302979,126.024406 
	C315.470734,126.133392 317.575745,127.490852 319.919434,128.593857 
	C317.548523,128.914978 314.967804,128.914978 311.777924,128.914978 
	C312.789429,129.813095 313.677185,130.374298 314.255249,131.162613 
	C315.401306,132.725510 316.376434,134.413727 317.422241,136.050156 
	C315.193848,136.413651 312.973175,136.859070 310.730438,137.070435 
	C310.290344,137.111923 309.764984,136.248383 309.448181,135.421570 
	C311.559662,135.360123 313.501862,135.679382 315.444061,135.998642 
	C307.137390,128.752655 292.448822,126.655243 283.275146,129.870331 
	C284.564972,125.182045 280.620850,127.029488 279.065216,126.003860 
z"/>
<path fill="#000000" opacity="1.000000" stroke="none" 
	d="
M283.212860,130.185165 
	C292.448822,126.655243 307.137390,128.752655 315.444061,135.998642 
	C313.501862,135.679382 311.559662,135.360123 309.268890,135.120728 
	C308.920319,135.200562 308.517181,135.083984 308.135132,134.713409 
	C306.158997,133.977142 304.564880,133.611435 302.970764,133.245728 
	C302.970764,133.245728 302.553833,133.103943 302.241333,132.769928 
	C301.579254,132.326752 301.229706,132.217590 300.880157,132.108429 
	C300.493225,132.085464 300.106262,132.062500 299.250214,131.643845 
	C297.508942,131.251907 296.236816,131.255676 294.964661,131.259430 
	C294.788757,131.212158 294.612823,131.164871 294.117371,130.882172 
	C293.565277,130.766495 293.332611,130.886246 293.099976,131.005981 
	C291.685852,131.071609 290.271729,131.137238 288.044647,131.155304 
	C283.517059,130.869522 284.685669,133.321457 285.484253,134.856339 
	C286.189880,136.212524 287.712982,137.143326 288.875153,138.261963 
	C289.245422,139.760117 290.397583,141.970093 289.819611,142.604935 
	C288.693665,143.841690 286.598572,144.196167 284.904907,144.916031 
	C284.444855,143.497025 283.984833,142.078033 283.634216,140.112000 
	C283.101776,137.736816 282.459961,135.908676 281.916443,133.742783 
	C282.392853,132.314316 282.770966,131.223602 283.154175,130.159485 
	C283.159302,130.186066 283.212860,130.185165 283.212860,130.185165 
z"/>
<path fill="#31558D" opacity="1.000000" stroke="none" 
	d="
M252.977753,218.035019 
	C249.266281,217.139389 245.956573,215.763092 245.268112,211.381577 
	C244.751236,208.092041 247.021225,205.328110 250.195419,205.331329 
	C254.061493,205.335251 262.640045,213.131882 263.058777,217.504730 
	C263.029663,217.960724 262.908142,218.073593 262.648651,217.939423 
	C261.922150,217.458511 261.455109,217.111771 260.933472,216.418030 
	C258.206207,212.017242 256.869141,212.008835 253.899750,216.278351 
	C253.504547,217.030807 253.241150,217.532913 252.977753,218.035019 
z"/>
<path fill="#2C538E" opacity="1.000000" stroke="none" 
	d="
M381.010559,209.310486 
	C380.750763,208.700241 380.592834,208.016266 380.213745,207.492355 
	C378.460205,205.068939 377.456604,202.379623 380.723145,200.778870 
	C383.765381,199.288055 386.981720,199.834351 388.954559,203.115250 
	C391.689972,207.664413 389.532593,213.370407 383.446075,216.699188 
	C382.654175,216.083115 382.271484,215.648254 382.046387,215.010574 
	C381.806152,212.975327 381.408356,211.142899 381.010559,209.310486 
z"/>
<path fill="#23477D" opacity="1.000000" stroke="none" 
	d="
M380.154724,149.144531 
	C379.457428,157.960052 378.650635,166.768661 378.094696,175.593094 
	C377.574799,183.846420 373.398956,190.380630 368.409271,196.901062 
	C368.687927,195.187439 368.898132,193.077179 369.900482,191.456970 
	C375.444550,182.495407 377.165253,172.714951 377.072388,162.344681 
	C377.034424,158.107330 378.014771,153.860855 379.040924,149.342041 
	C379.751556,149.091873 379.953156,149.118210 380.154724,149.144531 
z"/>
<path fill="#2F5893" opacity="1.000000" stroke="none" 
	d="
M270.844086,225.006607 
	C271.379456,225.826462 271.795044,227.227310 272.470703,227.366562 
	C275.552155,228.001724 277.811890,229.016266 275.480286,232.495850 
	C273.357300,235.664108 270.288361,236.699585 266.971252,234.386856 
	C264.156189,232.424118 261.654694,230.011520 259.015106,227.797195 
	C258.135498,227.059280 257.257935,226.318924 256.158783,225.326630 
	C255.938171,225.073578 256.066162,224.929413 256.451691,224.937103 
	C260.574188,226.633636 264.311157,228.322495 268.006042,230.326767 
	C267.963989,231.575470 267.963989,232.508759 267.963989,233.442047 
	C268.172668,233.465851 268.381348,233.489655 268.590057,233.513458 
	C268.876312,232.517517 269.162567,231.521561 269.494629,230.459106 
	C269.540436,230.392578 269.408722,230.299118 269.581451,230.147583 
	C269.527435,229.715286 269.300690,229.434525 268.963074,228.806732 
	C269.103119,227.370255 269.354004,226.280792 269.914673,225.145050 
	C270.431000,225.068024 270.637543,225.037308 270.844086,225.006607 
z"/>
<path fill="#274C81" opacity="1.000000" stroke="none" 
	d="
M345.070068,147.332031 
	C350.891052,152.869278 350.877747,160.530518 349.664490,167.634583 
	C348.397552,175.052933 344.649445,181.812500 337.462860,186.125153 
	C338.953308,183.442825 340.749542,180.726929 342.654205,178.089279 
	C348.502045,169.990936 350.058533,161.410385 345.891510,152.048157 
	C345.311249,150.744492 345.313934,149.181351 345.070068,147.332031 
z"/>
<path fill="#2E5188" opacity="1.000000" stroke="none" 
	d="
M309.144226,197.477966 
	C313.747314,197.472549 318.609131,198.283386 323.374725,197.899704 
	C330.118073,197.356781 335.958618,194.098877 341.602936,189.920380 
	C339.405273,195.765411 333.832977,197.397537 328.523499,198.848190 
	C322.147888,200.590149 315.563660,201.273575 309.144226,197.477966 
z"/>
<path fill="#2E5188" opacity="1.000000" stroke="none" 
	d="
M315.000824,192.849991 
	C310.753601,191.261826 306.442688,189.822388 302.278870,188.039459 
	C298.811066,186.554581 296.841766,186.876831 297.087738,191.580017 
	C296.301453,190.639465 295.510437,189.309250 294.719452,187.979034 
	C296.441650,187.050949 298.502533,184.996368 299.826050,185.394318 
	C304.923950,186.927002 309.785980,189.244156 314.892609,191.810791 
	C315.049255,192.352722 315.000824,192.849991 315.000824,192.849991 
z"/>
<path fill="#3D6091" opacity="1.000000" stroke="none" 
	d="
M316.179382,248.914551 
	C310.571136,248.145325 304.962921,247.376083 299.418213,246.166779 
	C299.686646,245.139267 299.891510,244.551819 300.096405,243.964386 
	C301.896637,244.011063 303.696838,244.057739 305.780334,243.912720 
	C306.498352,243.785660 306.933105,243.850281 307.847351,244.244705 
	C310.852600,245.039612 313.378265,245.504715 315.961426,246.336304 
	C316.072388,247.440048 316.125885,248.177307 316.179382,248.914551 
z"/>
<path fill="#34568A" opacity="1.000000" stroke="none" 
	d="
M380.441772,148.933624 
	C379.953156,149.118210 379.751556,149.091873 379.247620,149.021301 
	C379.036133,143.986115 382.740509,141.717438 386.177368,139.149399 
	C387.923798,137.844452 389.365509,136.131699 391.004822,134.245041 
	C392.657196,134.570648 394.249725,135.254517 396.557709,136.245621 
	C390.499207,140.350159 382.777222,141.096771 380.441772,148.933624 
z"/>
<path fill="#274C81" opacity="1.000000" stroke="none" 
	d="
M336.696106,186.115875 
	C331.783997,192.075012 325.014526,193.530624 317.242432,192.216446 
	C323.469666,189.981918 329.894165,188.057480 336.696106,186.115875 
z"/>
<path fill="#31558D" opacity="1.000000" stroke="none" 
	d="
M270.846863,224.635529 
	C270.637543,225.037308 270.431000,225.068024 269.591248,225.002457 
	C266.979767,224.139740 265.157196,221.226791 262.888306,224.465790 
	C262.199432,223.960358 261.510559,223.454941 260.979370,222.807800 
	C261.137054,222.666092 261.281616,222.267456 261.582855,222.090042 
	C262.225433,220.632950 262.566772,219.353271 262.908142,218.073593 
	C262.908142,218.073593 263.029663,217.960724 263.091064,217.903992 
	C265.405609,220.361282 270.682098,219.248871 270.846863,224.635529 
z"/>
<path fill="#274C81" opacity="1.000000" stroke="none" 
	d="
M258.320007,154.135239 
	C260.471893,153.429977 262.954376,152.438202 265.426300,152.463989 
	C273.505707,152.548233 281.581238,153.003220 289.905334,153.633423 
	C279.650208,154.072357 269.148010,154.193527 258.320007,154.135239 
z"/>
<path fill="#34568A" opacity="1.000000" stroke="none" 
	d="
M328.271057,229.959976 
	C334.644928,227.305542 341.454559,224.660202 348.628723,221.976532 
	C345.351013,224.227310 341.905731,226.975922 337.999847,228.649979 
	C335.223663,229.839844 331.826691,229.581207 328.271057,229.959976 
z"/>
<path fill="#2C538E" opacity="1.000000" stroke="none" 
	d="
M315.903961,245.969818 
	C313.378265,245.504715 310.852600,245.039612 308.173706,244.290802 
	C310.460663,242.785507 312.900848,241.563904 315.722107,240.522369 
	C316.118134,241.143341 316.133087,241.584244 316.092468,242.417358 
	C315.992523,243.862976 315.948242,244.916397 315.903961,245.969818 
z"/>
<path fill="#2E5188" opacity="1.000000" stroke="none" 
	d="
M357.135284,158.666473 
	C355.610687,154.926163 354.267731,150.858414 352.946106,146.397400 
	C357.260468,149.113205 358.373230,153.343689 357.135284,158.666473 
z"/>
<path fill="#34568A" opacity="1.000000" stroke="none" 
	d="
M385.382538,168.608337 
	C385.301575,163.796158 385.367554,158.636871 385.736359,153.274261 
	C385.869324,158.134369 385.699402,163.197800 385.382538,168.608337 
z"/>
<path fill="#34568A" opacity="1.000000" stroke="none" 
	d="
M349.309509,221.947632 
	C352.705048,219.296661 356.474701,216.611191 360.622864,213.937698 
	C357.228790,216.604156 353.456207,219.258652 349.309509,221.947632 
z"/>
<path fill="#2F5893" opacity="1.000000" stroke="none" 
	d="
M253.021820,218.300964 
	C253.241150,217.532913 253.504547,217.030807 254.077606,216.585297 
	C255.143753,218.283112 255.900208,219.924332 256.685699,221.584412 
	C256.714752,221.603256 256.673889,221.659302 256.492401,221.838455 
	C256.197937,222.144928 256.084961,222.272247 255.919098,222.822556 
	C255.932877,223.806824 255.999527,224.368118 256.066162,224.929413 
	C256.066162,224.929413 255.938171,225.073578 255.874115,225.147461 
	C254.769577,225.142929 253.729065,225.064499 252.291687,224.979370 
	C251.354645,224.518387 250.814468,224.064117 250.159729,223.367706 
	C251.052078,221.606003 252.058990,220.086456 253.021820,218.300964 
z"/>
<path fill="#34568A" opacity="1.000000" stroke="none" 
	d="
M387.990540,148.496552 
	C390.814941,146.597717 394.025635,144.796524 397.615662,142.964325 
	C394.788940,144.820297 391.582886,146.707245 387.990540,148.496552 
z"/>
<path fill="#ABC7E9" opacity="1.000000" stroke="none" 
	d="
M380.909607,209.592545 
	C381.408356,211.142899 381.806152,212.975327 381.684235,214.994339 
	C380.922852,215.191544 380.681213,215.202148 380.199738,215.162781 
	C379.671967,214.955215 379.371460,214.826935 379.058441,214.727966 
	C379.641846,213.110184 380.225281,211.492386 380.909607,209.592545 
z"/>
<path fill="#BEDFF6" opacity="1.000000" stroke="none" 
	d="
M380.439545,215.212738 
	C380.681213,215.202148 380.922852,215.191544 381.526672,215.197159 
	C382.271484,215.648254 382.654175,216.083115 383.122467,216.810394 
	C383.208069,217.102798 383.049255,217.503891 383.025818,217.717896 
	C381.276093,219.752014 379.549744,221.572113 376.931641,224.332428 
	C377.881104,222.120895 378.365112,220.993515 378.904999,219.736038 
	C377.878937,219.236496 376.911865,218.765701 375.728577,218.045715 
	C375.512360,217.796524 375.311340,217.531754 375.483459,217.450867 
	C376.101227,217.228073 376.546844,217.086151 376.992462,216.944244 
	C377.363892,217.062424 377.735321,217.180588 378.681091,217.516663 
	C379.650177,216.893982 380.044861,216.053360 380.439545,215.212738 
z"/>
<path fill="#274C81" opacity="1.000000" stroke="none" 
	d="
M364.796478,201.194031 
	C362.855438,203.471664 360.596375,205.887405 358.033875,208.427643 
	C357.632446,203.951569 361.800262,203.337982 364.796478,201.194031 
z"/>
<path fill="#274C81" opacity="1.000000" stroke="none" 
	d="
M242.971100,155.979202 
	C246.380539,155.329300 249.789963,154.679398 253.622223,154.123260 
	C250.621185,155.113266 247.197311,156.009506 243.370880,156.692444 
	C242.968307,156.479126 242.971100,155.979202 242.971100,155.979202 
z"/>
<path fill="#2E5188" opacity="1.000000" stroke="none" 
	d="
M288.902618,137.880188 
	C287.712982,137.143326 286.189880,136.212524 285.484253,134.856339 
	C284.685669,133.321457 283.517059,130.869522 287.623962,131.213257 
	C288.255768,132.659790 288.495331,134.000809 288.872345,135.654816 
	C288.983246,136.478012 288.956665,136.988220 288.902618,137.880188 
z"/>
<path fill="#2E5188" opacity="1.000000" stroke="none" 
	d="
M355.232910,172.818756 
	C355.374512,170.419327 355.819183,167.850082 356.602112,165.069458 
	C356.472229,167.455017 356.004089,170.051987 355.232910,172.818756 
z"/>
<path fill="#2E5188" opacity="1.000000" stroke="none" 
	d="
M344.336426,188.908005 
	C345.413208,186.981613 346.820923,184.954391 348.588715,182.920685 
	C347.521667,184.878525 346.094513,186.842850 344.336426,188.908005 
z"/>
<path fill="#2C538E" opacity="1.000000" stroke="none" 
	d="
M277.476624,238.064880 
	C277.653503,238.907135 277.597656,239.643036 277.541809,240.378937 
	C277.004608,240.146423 276.467438,239.913910 275.930237,239.681396 
	C276.368103,239.107101 276.806000,238.532822 277.476624,238.064880 
z"/>
<path fill="#2E5188" opacity="1.000000" stroke="none" 
	d="
M300.154938,194.303406 
	C302.224609,194.791000 304.463745,195.584167 306.880737,196.691818 
	C304.813873,196.207184 302.569122,195.408081 300.154938,194.303406 
z"/>
<path fill="#274C81" opacity="1.000000" stroke="none" 
	d="
M357.129028,208.668930 
	C356.259583,209.879745 355.032959,211.016846 353.468781,212.154388 
	C354.344788,210.968292 355.558289,209.781754 357.129028,208.668930 
z"/>
<path fill="#BEDFF6" opacity="1.000000" stroke="none" 
	d="
M346.994049,235.217285 
	C348.025543,236.865372 349.016968,238.576309 349.819672,240.633179 
	C349.461700,240.982559 349.292450,240.986023 348.969299,240.727386 
	C348.137909,239.245270 347.460358,238.025299 346.808594,236.539215 
	C346.831512,235.916718 346.828674,235.560303 346.825806,235.203888 
	C346.825806,235.203888 346.953979,235.280151 346.994049,235.217285 
z"/>
<path fill="#34568A" opacity="1.000000" stroke="none" 
	d="
M372.319031,202.904755 
	C372.775909,201.768784 373.550690,200.516098 374.665955,199.125244 
	C374.216614,200.254074 373.426788,201.521057 372.319031,202.904755 
z"/>
<path fill="#34568A" opacity="1.000000" stroke="none" 
	d="
M385.468018,133.264252 
	C387.018707,133.170410 388.902069,133.239426 390.939911,133.629471 
	C389.329834,133.776031 387.565247,133.601578 385.468018,133.264252 
z"/>
<path fill="#31558D" opacity="1.000000" stroke="none" 
	d="
M242.591400,155.967133 
	C242.971100,155.979202 242.968307,156.479126 242.967285,156.728851 
	C241.543869,157.123566 240.121490,157.268570 238.424408,157.269028 
	C239.503708,156.734680 240.857712,156.344864 242.591400,155.967133 
z"/>
<path fill="#274C81" opacity="1.000000" stroke="none" 
	d="
M352.751892,212.151733 
	C351.996155,213.118408 350.886169,214.101456 349.443207,215.113861 
	C350.206055,214.151489 351.301819,213.159805 352.751892,212.151733 
z"/>
<path fill="#2E5188" opacity="1.000000" stroke="none" 
	d="
M303.180725,133.519806 
	C304.564880,133.611435 306.158997,133.977142 307.930603,134.666504 
	C306.535614,134.591415 304.963165,134.192642 303.180725,133.519806 
z"/>
<path fill="#23477D" opacity="1.000000" stroke="none" 
	d="
M367.791565,197.216858 
	C367.306763,198.325851 366.492920,199.535019 365.395050,200.907074 
	C365.894867,199.818985 366.678711,198.567993 367.791565,197.216858 
z"/>
<path fill="#2E5188" opacity="1.000000" stroke="none" 
	d="
M295.139801,131.505402 
	C296.236816,131.255676 297.508942,131.251907 298.963013,131.597870 
	C297.868256,131.882172 296.591583,131.816757 295.139801,131.505402 
z"/>
<path fill="#34568A" opacity="1.000000" stroke="none" 
	d="
M364.232666,210.881470 
	C364.686798,209.946869 365.462860,208.928223 366.595581,207.903931 
	C366.153015,208.864670 365.353790,209.831039 364.232666,210.881470 
z"/>
<path fill="#34568A" opacity="1.000000" stroke="none" 
	d="
M381.213379,187.817841 
	C381.397949,186.707092 381.884796,185.424362 382.693573,184.001511 
	C382.515503,185.122879 382.015564,186.384384 381.213379,187.817841 
z"/>
<path fill="#34568A" opacity="1.000000" stroke="none" 
	d="
M383.484375,182.910278 
	C383.301392,182.124359 383.343597,181.189713 383.709534,180.088287 
	C383.925354,180.868195 383.817444,181.814865 383.484375,182.910278 
z"/>
<path fill="#23477D" opacity="1.000000" stroke="none" 
	d="
M380.199738,215.162781 
	C380.044861,216.053360 379.650177,216.893982 378.974426,217.513031 
	C378.782013,216.723465 378.870636,216.155472 379.008850,215.157715 
	C379.371460,214.826935 379.671967,214.955215 380.199738,215.162781 
z"/>
<path fill="#274C81" opacity="1.000000" stroke="none" 
	d="
M343.122864,144.245178 
	C343.757538,144.700470 344.424347,145.482925 345.095551,146.601349 
	C344.451630,146.148972 343.803314,145.360641 343.122864,144.245178 
z"/>
<path fill="#34568A" opacity="1.000000" stroke="none" 
	d="
M386.482147,150.855499 
	C386.438202,150.252716 386.636871,149.475388 387.113342,148.611389 
	C387.169037,149.243469 386.946899,149.962204 386.482147,150.855499 
z"/>
<path fill="#2E5188" opacity="1.000000" stroke="none" 
	d="
M350.250488,181.854218 
	C350.438232,181.072571 350.913147,180.144913 351.706146,179.102768 
	C351.528717,179.894928 351.033203,180.801559 350.250488,181.854218 
z"/>
<path fill="#34568A" opacity="1.000000" stroke="none" 
	d="
M384.438660,177.851288 
	C384.273529,177.092224 384.295563,176.148666 384.647186,175.043091 
	C384.859772,175.809677 384.742798,176.738235 384.438660,177.851288 
z"/>
<path fill="#2E5188" opacity="1.000000" stroke="none" 
	d="
M297.165771,192.190399 
	C297.945709,192.390503 298.863403,192.883774 299.889954,193.696320 
	C299.100403,193.504913 298.201996,192.994232 297.165771,192.190399 
z"/>
<path fill="#34568A" opacity="1.000000" stroke="none" 
	d="
M361.227844,213.877853 
	C361.406494,213.341385 361.862854,212.681702 362.648682,211.971771 
	C362.487274,212.532562 361.996429,213.143600 361.227844,213.877853 
z"/>
<path fill="#34568A" opacity="1.000000" stroke="none" 
	d="
M368.198242,206.863831 
	C368.375824,206.310669 368.837341,205.646484 369.643951,204.954895 
	C369.486755,205.535934 368.984497,206.144379 368.198242,206.863831 
z"/>
<path fill="#ABC7E9" opacity="1.000000" stroke="none" 
	d="
M366.018372,227.512436 
	C366.065643,227.360641 365.729706,227.336151 365.729706,227.336151 
	C365.729706,227.336151 365.410797,227.613785 365.404755,227.724762 
	C365.631836,227.919968 365.822632,227.862808 366.018372,227.512436 
z"/>
<path fill="#ABC7E9" opacity="1.000000" stroke="none" 
	d="
M316.148071,242.025162 
	C316.133087,241.584244 316.118134,241.143341 316.027466,240.381210 
	C315.991943,239.814316 316.032135,239.568619 316.233612,238.935989 
	C316.394867,238.549057 316.422241,238.356506 316.422241,238.356506 
	C316.599640,238.472916 316.777069,238.589340 317.233215,238.860748 
	C317.392822,239.757126 317.273712,240.498505 316.874725,241.622940 
	C316.594849,242.005981 316.148071,242.025162 316.148071,242.025162 
z"/>
<path fill="#23477D" opacity="1.000000" stroke="none" 
	d="
M376.773926,216.882996 
	C376.546844,217.086151 376.101227,217.228073 375.319580,217.478455 
	C375.507477,217.331848 376.031403,217.076797 376.773926,216.882996 
z"/>
<path fill="#2C538E" opacity="1.000000" stroke="none" 
	d="
M346.536926,235.359772 
	C346.828674,235.560303 346.831512,235.916718 346.377472,236.600266 
	C345.633392,236.969849 345.346222,237.012299 345.059052,237.054764 
	C345.059052,237.054764 345.031525,237.028702 345.017883,237.015686 
	C345.418854,236.506973 345.833435,236.011307 346.536926,235.359772 
z"/>
<path fill="#2E5188" opacity="1.000000" stroke="none" 
	d="
M357.306824,162.784378 
	C357.176819,162.538361 357.137512,162.108109 357.155884,161.357758 
	C357.274841,161.558487 357.336182,162.079315 357.306824,162.784378 
z"/>
<path fill="#34568A" opacity="1.000000" stroke="none" 
	d="
M378.180237,193.007294 
	C378.125000,192.780457 378.258698,192.326736 378.693542,191.825195 
	C378.786194,192.111725 378.577698,192.446060 378.180237,193.007294 
z"/>
<path fill="#34568A" opacity="1.000000" stroke="none" 
	d="
M377.164124,194.970612 
	C376.790497,194.960236 376.602722,194.748688 376.414978,194.537125 
	C376.753113,194.333206 377.091248,194.129288 377.715820,193.906891 
	C377.784790,194.182114 377.567383,194.475784 377.164124,194.970612 
z"/>
<path fill="#34568A" opacity="1.000000" stroke="none" 
	d="
M375.191010,197.988098 
	C375.145142,197.771301 375.284882,197.340042 375.714539,196.868561 
	C375.795197,197.143448 375.585907,197.458557 375.191010,197.988098 
z"/>
<path fill="#31558D" opacity="1.000000" stroke="none" 
	d="
M230.156784,154.125397 
	C230.334427,154.082977 230.655792,154.245453 231.021729,154.688019 
	C230.811050,154.755508 230.555771,154.542892 230.156784,154.125397 
z"/>
<path fill="#31558D" opacity="1.000000" stroke="none" 
	d="
M231.181931,155.141571 
	C231.352722,155.102066 231.674957,155.269470 232.062012,155.715363 
	C231.862350,155.778732 231.597855,155.563614 231.181931,155.141571 
z"/>
<path fill="#31558D" opacity="1.000000" stroke="none" 
	d="
M233.112122,156.342346 
	C233.269501,156.278503 233.591843,156.375992 233.980881,156.740204 
	C233.770020,156.870926 233.513199,156.703186 233.112122,156.342346 
z"/>
<path fill="#3D6091" opacity="1.000000" stroke="none" 
	d="
M316.385071,238.370636 
	C316.422241,238.356506 316.394867,238.549057 316.303741,238.569199 
	C316.212616,238.589340 316.347900,238.384766 316.385071,238.370636 
z"/>
<path fill="#274C81" opacity="1.000000" stroke="none" 
	d="
M256.281982,154.026321 
	C256.309357,153.894424 256.569061,153.765396 256.903687,153.822876 
	C256.978638,154.009384 256.514343,154.029190 256.281982,154.026321 
z"/>
<path fill="#2E5188" opacity="1.000000" stroke="none" 
	d="
M301.074585,132.274261 
	C301.229706,132.217590 301.579254,132.326752 302.029266,132.710632 
	C301.842834,132.803604 301.555908,132.621841 301.074585,132.274261 
z"/>
<path fill="#274C81" opacity="1.000000" stroke="none" 
	d="
M342.170502,143.114838 
	C342.315704,143.097870 342.612701,143.277893 342.986237,143.715027 
	C342.788849,143.782455 342.542023,143.562347 342.170502,143.114838 
z"/>
<path fill="#34568A" opacity="1.000000" stroke="none" 
	d="
M398.208862,142.985916 
	C398.243134,142.852631 398.545380,142.732834 398.930420,142.813354 
	C398.834381,143.008926 398.655609,143.004166 398.208862,142.985916 
z"/>
<path fill="#274C81" opacity="1.000000" stroke="none" 
	d="
M341.167084,142.105301 
	C341.304718,142.096237 341.595093,142.290344 341.981201,142.734650 
	C341.824554,142.759399 341.572205,142.533951 341.167084,142.105301 
z"/>
<path fill="#274C81" opacity="1.000000" stroke="none" 
	d="
M337.186890,138.032837 
	C337.321503,138.036118 337.603943,138.259796 337.992371,138.735153 
	C337.843811,138.742310 337.589264,138.497772 337.186890,138.032837 
z"/>
<path fill="#2E5188" opacity="1.000000" stroke="none" 
	d="
M353.328613,175.888641 
	C353.267548,175.738693 353.367279,175.406555 353.729462,174.976166 
	C353.860016,175.175690 353.692505,175.451874 353.328613,175.888641 
z"/>
<path fill="#2C538E" opacity="1.000000" stroke="none" 
	d="
M282.938965,246.992554 
	C282.938965,246.992554 282.485046,246.990341 282.258667,246.984619 
	C282.234467,246.749069 282.445923,246.528122 282.833984,246.158447 
	C283.001373,246.000870 283.000000,246.000000 282.984344,246.247559 
	C282.968689,246.495117 282.938965,246.992554 282.938965,246.992554 
z"/>
<path fill="#2E5188" opacity="1.000000" stroke="none" 
	d="
M324.139374,130.366455 
	C324.276825,130.309891 324.591675,130.405853 325.015808,130.743622 
	C324.834930,130.865799 324.565491,130.710327 324.139374,130.366455 
z"/>
<path fill="#2E5188" opacity="1.000000" stroke="none" 
	d="
M293.300232,131.009521 
	C293.332611,130.886246 293.565277,130.766495 293.849518,130.828094 
	C293.901123,131.009445 293.500519,131.013062 293.300232,131.009521 
z"/>
<path fill="#2E5188" opacity="1.000000" stroke="none" 
	d="
M322.068909,129.276581 
	C322.233643,129.210449 322.591705,129.313217 323.039307,129.703033 
	C322.839935,129.808548 322.551086,129.627014 322.068909,129.276581 
z"/>
<path fill="#274C81" opacity="1.000000" stroke="none" 
	d="
M252.198883,187.142441 
	C252.338440,187.120636 252.640472,187.290024 253.043884,187.707123 
	C252.883942,187.747787 252.622650,187.540710 252.198883,187.142441 
z"/>
<path fill="#34568A" opacity="1.000000" stroke="none" 
	d="
M370.131683,204.852142 
	C370.122955,204.713730 370.312561,204.417877 370.758545,204.035736 
	C370.786621,204.197861 370.558350,204.446274 370.131683,204.852142 
z"/>
<path fill="#34568A" opacity="1.000000" stroke="none" 
	d="
M371.142212,203.862961 
	C371.137177,203.728165 371.327087,203.442444 371.768921,203.080139 
	C371.816010,203.261917 371.588104,203.498093 371.142212,203.862961 
z"/>
<path fill="#34568A" opacity="1.000000" stroke="none" 
	d="
M363.133728,211.847839 
	C363.113312,211.698044 363.293579,211.393860 363.735962,211.010742 
	C363.776855,211.185699 363.555634,211.439590 363.133728,211.847839 
z"/>
<path fill="#274C81" opacity="1.000000" stroke="none" 
	d="
M315.237000,192.805206 
	C315.000824,192.849991 315.049255,192.352722 315.080139,192.102905 
	C315.111053,191.853088 315.539154,191.906982 315.753052,191.936249 
	C315.930389,192.310043 315.765778,192.575012 315.237000,192.805206 
z"/>
<path fill="#34568A" opacity="1.000000" stroke="none" 
	d="
M379.258789,190.965668 
	C379.181946,190.794052 379.286469,190.402191 379.689087,189.878845 
	C379.804840,190.080063 379.622498,190.412750 379.258789,190.965668 
z"/>
<path fill="#274C81" opacity="1.000000" stroke="none" 
	d="
M255.167480,190.161377 
	C255.300171,190.146698 255.592407,190.327576 256.000610,190.745209 
	C255.853378,190.773636 255.590210,190.565277 255.167480,190.161377 
z"/>
<path fill="#2E5188" opacity="1.000000" stroke="none" 
	d="
M342.117920,189.883850 
	C342.033508,189.674683 342.224243,189.442657 342.735596,189.284027 
	C342.760071,189.471420 342.539001,189.639267 342.117920,189.883850 
z"/>
<path fill="#274C81" opacity="1.000000" stroke="none" 
	d="
M254.161163,189.107620 
	C254.299210,189.100433 254.578156,189.299698 254.945663,189.745392 
	C254.790161,189.765915 254.546112,189.540009 254.161163,189.107620 
z"/>
<path fill="#34568A" opacity="1.000000" stroke="none" 
	d="
M380.315552,188.896484 
	C380.276367,188.761932 380.393127,188.445099 380.754639,188.021988 
	C380.843475,188.195129 380.667511,188.461304 380.315552,188.896484 
z"/>
<path fill="#2E5188" opacity="1.000000" stroke="none" 
	d="
M354.321289,173.886719 
	C354.267792,173.738297 354.372314,173.419098 354.736115,173.022125 
	C354.852722,173.221191 354.680695,173.478394 354.321289,173.886719 
z"/>
<path fill="#274C81" opacity="1.000000" stroke="none" 
	d="
M251.091919,186.243256 
	C251.257507,186.181549 251.607346,186.276077 252.011215,186.661880 
	C251.788635,186.787979 251.525604,186.603424 251.091919,186.243256 
z"/>
<path fill="#274C81" opacity="1.000000" stroke="none" 
	d="
M248.084900,184.236450 
	C248.235214,184.175217 248.603333,184.269073 249.101990,184.636993 
	C248.922607,184.737869 248.612640,184.564697 248.084900,184.236450 
z"/>
<path fill="#274C81" opacity="1.000000" stroke="none" 
	d="
M246.082642,183.251282 
	C246.233246,183.193207 246.590240,183.292191 247.062271,183.663330 
	C246.881210,183.759781 246.585114,183.584045 246.082642,183.251282 
z"/>
<path fill="#2E5188" opacity="1.000000" stroke="none" 
	d="
M349.131714,182.842682 
	C349.124359,182.706253 349.314423,182.419312 349.755829,182.050079 
	C349.808319,182.234695 349.582336,182.476135 349.131714,182.842682 
z"/>
<path fill="#2E5188" opacity="1.000000" stroke="none" 
	d="
M352.360016,177.869568 
	C352.299988,177.726059 352.394257,177.405930 352.740631,176.987274 
	C352.867340,177.177094 352.707855,177.445160 352.360016,177.869568 
z"/>
<path fill="#34568A" opacity="1.000000" stroke="none" 
	d="
M367.139038,207.838455 
	C367.117310,207.687302 367.296082,207.384644 367.737000,207.006485 
	C367.779266,207.182968 367.559418,207.434952 367.139038,207.838455 
z"/>
<path fill="#23477D" opacity="1.000000" stroke="none" 
	d="
M317.493256,243.023941 
	C318.302063,243.014908 319.244659,242.732529 319.893494,243.050201 
	C321.558990,243.865646 323.093994,244.947464 324.681183,245.922791 
	C323.115082,246.847855 321.565613,247.803314 319.971191,248.676697 
	C319.570038,248.896454 319.024872,248.853287 318.245117,248.624512 
	C317.789703,247.215134 317.635040,246.112228 317.424316,244.679123 
	C317.409912,243.907257 317.451569,243.465607 317.493256,243.023941 
z"/>
<path fill="#34568A" opacity="1.000000" stroke="none" 
	d="
M345.033081,237.427582 
	C345.346222,237.012299 345.633392,236.969849 346.351685,236.866364 
	C347.460358,238.025299 348.137909,239.245270 348.957886,241.058029 
	C348.673950,242.386566 348.247559,243.122330 347.467712,243.815109 
	C346.421509,242.501511 345.728760,241.230896 345.011749,239.791992 
	C344.987488,239.623718 344.906525,239.293442 344.906525,239.293442 
	C344.940063,238.795761 344.973602,238.298096 345.033081,237.427582 
z"/>
<path fill="#BEDFF6" opacity="1.000000" stroke="none" 
	d="
M317.373352,242.768448 
	C317.451569,243.465607 317.409912,243.907257 317.315002,245.063934 
	C317.140625,246.837555 317.019440,247.896149 316.898254,248.954758 
	C316.898285,248.954758 316.536713,248.971939 316.358032,248.943253 
	C316.125885,248.177307 316.072388,247.440048 315.961426,246.336304 
	C315.948242,244.916397 315.992523,243.862976 316.092468,242.417358 
	C316.148071,242.025162 316.594849,242.005981 316.818329,241.997818 
	C317.112335,242.164093 317.182892,242.338531 317.373352,242.768448 
z"/>
<path fill="#BEDFF6" opacity="1.000000" stroke="none" 
	d="
M342.043701,244.162735 
	C341.395447,243.677170 340.747223,243.191620 340.095245,242.379028 
	C340.542816,241.728455 340.994080,241.404907 341.731689,241.297943 
	C342.040680,241.721420 342.063324,241.928299 342.095398,242.295212 
	C342.104828,242.455231 342.155121,242.771484 342.142944,243.120544 
	C342.101715,243.700653 342.072723,243.931702 342.043701,244.162735 
z"/>
<path fill="#ABC7E9" opacity="1.000000" stroke="none" 
	d="
M342.085999,242.135193 
	C342.063324,241.928299 342.040680,241.721420 341.998779,241.202911 
	C342.776733,240.439850 343.573944,239.988403 344.638855,239.415192 
	C344.906525,239.293442 344.987488,239.623718 344.987305,240.087082 
	C344.966248,240.746719 344.945374,240.943008 344.612549,241.109879 
	C343.562378,241.432037 342.824188,241.783615 342.085999,242.135193 
z"/>
<path fill="#ABC7E9" opacity="1.000000" stroke="none" 
	d="
M299.953156,243.717041 
	C299.891510,244.551819 299.686646,245.139267 299.219910,245.902313 
	C299.242004,245.208511 299.525970,244.339096 299.953156,243.717041 
z"/>
<path fill="#3D6091" opacity="1.000000" stroke="none" 
	d="
M317.140656,248.969543 
	C317.019440,247.896149 317.140625,246.837555 317.371094,245.394135 
	C317.635040,246.112228 317.789703,247.215134 317.906494,248.656860 
	C317.868622,248.995682 317.383057,248.984329 317.140656,248.969543 
z"/>
<path fill="#1D4D98" opacity="1.000000" stroke="none" 
	d="
M283.200317,247.018188 
	C282.938965,246.992554 282.968689,246.495117 282.983673,246.246368 
	C283.247864,246.214142 283.477692,246.449600 283.835754,246.903793 
	C283.809448,247.083649 283.635529,247.063721 283.200317,247.018188 
z"/>
<path fill="#ABC7E9" opacity="1.000000" stroke="none" 
	d="
M363.152344,229.196960 
	C364.823242,230.505966 366.457245,231.732758 369.032043,233.665894 
	C365.649841,235.283951 362.910339,236.813797 359.994904,237.847137 
	C359.187256,238.133392 357.372772,237.209778 356.905243,236.356384 
	C356.456482,235.537262 356.768433,233.619156 357.459259,233.050720 
	C358.143585,232.487656 359.789246,232.777481 360.882996,233.115143 
	C362.004303,233.461304 362.967743,234.318756 364.000275,234.952423 
	C364.285095,234.635376 364.569946,234.318329 364.854767,234.001282 
	C364.246735,232.645981 363.638702,231.290680 363.119781,229.603516 
	C363.208893,229.271667 363.115479,229.114746 363.152344,229.196960 
z"/>
<path fill="#ABC7E9" opacity="1.000000" stroke="none" 
	d="
M338.059174,246.863312 
	C339.520203,246.208145 340.981232,245.552963 342.773712,244.405792 
	C343.249268,243.765961 343.393372,243.618149 343.712250,243.730484 
	C344.287628,244.338135 344.688232,244.685638 345.045288,245.047852 
	C345.001740,245.062576 344.972137,244.975601 344.972137,244.975616 
	C343.826935,245.836395 342.681732,246.697189 341.253113,247.716888 
	C340.224182,247.886688 339.478699,247.897583 338.385925,247.643646 
	C338.045471,247.206985 338.052307,247.035156 338.059174,246.863312 
z"/>
<path fill="#ABC7E9" opacity="1.000000" stroke="none" 
	d="
M347.821167,243.858093 
	C348.247559,243.122330 348.673950,242.386566 349.111755,241.320160 
	C349.292450,240.986023 349.461700,240.982559 349.884979,240.976318 
	C349.951385,242.200836 349.763794,243.428131 349.079193,244.555511 
	C348.331024,244.253281 348.077332,244.054108 347.821167,243.858093 
z"/>
<path fill="#BEDFF6" opacity="1.000000" stroke="none" 
	d="
M347.467712,243.815109 
	C348.077332,244.054108 348.331024,244.253281 348.752686,244.627243 
	C347.874359,244.887360 346.825531,244.975845 345.374451,245.019958 
	C344.972137,244.975601 345.001740,245.062576 344.988708,244.648041 
	C344.958618,243.202087 344.941559,242.170700 344.924530,241.139297 
	C344.945374,240.943008 344.966248,240.746719 345.011536,240.255356 
	C345.728760,241.230896 346.421509,242.501511 347.467712,243.815109 
z"/>
<path fill="#BEDFF6" opacity="1.000000" stroke="none" 
	d="
M337.743286,246.834351 
	C338.052307,247.035156 338.045471,247.206985 338.012024,247.635376 
	C337.246490,247.891937 336.507538,247.891937 335.768585,247.891937 
	C335.756561,247.711792 335.744507,247.531631 335.732483,247.351486 
	C336.297455,247.169449 336.862457,246.987427 337.743286,246.834351 
z"/>
<path fill="#ABC7E9" opacity="1.000000" stroke="none" 
	d="
M342.191528,244.244629 
	C342.072723,243.931702 342.101715,243.700653 342.393890,243.192596 
	C342.950500,243.100494 343.243988,243.285431 343.537445,243.470352 
	C343.393372,243.618149 343.249268,243.765961 342.890442,244.137207 
	C342.675690,244.360641 342.339386,244.326538 342.191528,244.244629 
z"/>
<path fill="#214E94" opacity="1.000000" stroke="none" 
	d="
M281.818146,134.080536 
	C282.459961,135.908676 283.101776,137.736816 283.514160,139.805069 
	C280.406067,137.471344 277.527374,134.897507 274.309784,132.172119 
	C273.970856,132.020554 273.969391,131.925079 273.936218,131.795425 
	C273.631561,131.684616 273.360107,131.703461 272.777527,131.900665 
	C271.698792,133.284332 270.931122,134.489655 269.928589,136.063782 
	C267.922913,134.723267 265.928314,133.390167 263.769562,132.209671 
	C263.392761,132.574417 263.199585,132.803009 263.015381,133.030304 
	C263.004913,133.012589 263.040039,133.037689 263.040039,133.037689 
	C261.460297,136.081604 259.880554,139.125504 257.773376,142.556046 
	C255.319382,141.964523 253.392776,140.986359 251.249268,139.751328 
	C250.688156,139.208954 250.343964,138.923431 250.022034,138.290985 
	C251.396713,137.306244 252.749176,136.668411 254.273651,135.866028 
	C253.737091,134.335846 253.028519,132.970245 251.858307,130.714951 
	C258.970856,129.461273 265.982666,128.225342 273.266296,126.903038 
	C274.021332,126.519936 274.504517,126.223213 274.987671,125.926483 
	C274.987671,125.926483 275.000793,125.984581 275.240570,125.980087 
	C275.658630,125.976074 275.836945,125.976570 276.015289,125.977074 
	C276.777283,126.006325 277.539276,126.035576 278.683228,126.034348 
	C280.620850,127.029488 284.564972,125.182045 283.275146,129.870331 
	C283.212860,130.185165 283.159302,130.186066 282.863159,130.243454 
	C282.317413,131.560745 282.067780,132.820633 281.818146,134.080536 
z"/>
<path fill="#335386" opacity="1.000000" stroke="none" 
	d="
M272.994446,126.989418 
	C265.982666,128.225342 258.970856,129.461273 251.858307,130.714951 
	C253.028519,132.970245 253.737091,134.335846 254.038239,135.542664 
	C243.560623,134.924057 239.324036,138.609146 241.526093,147.027649 
	C239.953293,146.988235 238.808746,146.957825 237.664200,146.927414 
	C238.010162,146.213287 238.356125,145.499176 238.702087,144.785065 
	C234.381042,143.354340 236.193466,139.846146 237.385559,138.091599 
	C239.103745,135.562729 241.830841,132.904266 244.646240,132.085739 
	C253.817368,129.419403 263.224060,127.563347 272.787415,125.908607 
	C273.021301,126.610962 273.007874,126.800186 272.994446,126.989418 
M248.476059,132.505615 
	C248.476059,132.505615 248.513153,132.494095 248.476059,132.505615 
z"/>
<path fill="#335386" opacity="1.000000" stroke="none" 
	d="
M263.020477,145.136581 
	C263.005463,145.591461 262.990479,146.046326 262.959198,146.842316 
	C257.216461,148.381638 251.490036,149.579865 245.528412,150.441650 
	C245.854416,149.462067 246.415634,148.818939 247.328522,148.052856 
	C252.793625,146.998795 257.907043,146.067688 263.020477,145.136581 
z"/>
<path fill="#2C5087" opacity="1.000000" stroke="none" 
	d="
M246.976852,148.175797 
	C246.415634,148.818939 245.854416,149.462067 245.182205,150.335007 
	C242.698761,150.916611 240.327835,151.398041 237.951614,151.425644 
	C237.706024,151.428482 237.429062,148.728424 237.415436,147.104965 
	C238.808746,146.957825 239.953293,146.988235 241.753479,147.336121 
	C243.931686,147.827652 245.454269,148.001724 246.976852,148.175797 
z"/>
<path fill="#2E5188" opacity="1.000000" stroke="none" 
	d="
M273.266296,126.903038 
	C273.007874,126.800186 273.021301,126.610962 273.054626,126.138046 
	C273.499054,125.890442 273.923523,125.926521 274.667847,125.944550 
	C274.504517,126.223213 274.021332,126.519936 273.266296,126.903038 
z"/>
<path fill="#2E5188" opacity="1.000000" stroke="none" 
	d="
M275.932861,125.776642 
	C275.836945,125.976570 275.658630,125.976074 275.212708,125.969528 
	C275.246887,125.834389 275.548676,125.705299 275.932861,125.776642 
z"/>
<path fill="#000000" opacity="1.000000" stroke="none" 
	d="
M247.328522,148.052856 
	C245.454269,148.001724 243.931686,147.827652 242.181732,147.345108 
	C239.324036,138.609146 243.560623,134.924057 253.866211,135.707230 
	C252.749176,136.668411 251.396713,137.306244 249.724792,138.424591 
	C250.092270,139.272781 250.779236,139.640488 251.466187,140.008179 
	C253.392776,140.986359 255.319382,141.964523 257.625916,142.874161 
	C259.860474,143.418579 261.715088,144.031525 263.295105,144.890533 
	C257.907043,146.067688 252.793625,146.998795 247.328522,148.052856 
z"/>
<path fill="#000000" opacity="1.000000" stroke="none" 
	d="
M263.933746,132.057068 
	C265.928314,133.390167 267.922913,134.723267 269.928589,136.063782 
	C270.931122,134.489655 271.698792,133.284332 272.992310,131.971924 
	C273.518158,131.864853 273.969391,131.925079 273.969391,131.925079 
	C273.969391,131.925079 273.970856,132.020554 274.018921,132.023331 
	C274.352661,134.443344 274.847137,136.862518 274.824890,139.276917 
	C274.815521,140.293442 273.921112,141.809921 273.050415,142.161514 
	C272.246796,142.486053 270.766815,141.784332 269.885834,141.129532 
	C268.202026,139.878021 266.732239,138.338593 264.923523,136.690811 
	C264.162537,137.965515 263.645020,138.832382 263.127533,139.699249 
	C262.745544,139.611969 262.363586,139.524689 261.981628,139.437408 
	C262.315674,137.557129 262.649689,135.676849 263.011902,133.417130 
	C263.040039,133.037689 263.004913,133.012589 263.238037,132.938263 
	C263.766174,132.675674 263.920380,132.406723 263.933746,132.057068 
z"/>
<path fill="#2E5188" opacity="1.000000" stroke="none" 
	d="
M281.916443,133.742783 
	C282.067780,132.820633 282.317413,131.560745 282.858063,130.216858 
	C282.770966,131.223602 282.392853,132.314316 281.916443,133.742783 
z"/>
<path fill="#335386" opacity="1.000000" stroke="none" 
	d="
M256.656647,221.565567 
	C255.900208,219.924332 255.143753,218.283112 254.209427,216.334930 
	C256.869141,212.008835 258.206207,212.017242 260.575012,216.460632 
	C257.622070,217.314926 255.849838,218.451767 256.656647,221.565567 
z"/>
<path fill="#BEDFF6" opacity="1.000000" stroke="none" 
	d="
M256.685699,221.584412 
	C255.849838,218.451767 257.622070,217.314926 260.629639,216.807648 
	C261.455109,217.111771 261.922150,217.458511 262.648651,217.939423 
	C262.566772,219.353271 262.225433,220.632950 261.387909,221.894928 
	C260.761902,221.747009 260.632080,221.616791 260.715912,221.181763 
	C260.680725,220.024246 260.431885,219.171539 260.183044,218.318832 
	C259.616577,219.481567 259.050110,220.644302 258.138397,221.853638 
	C257.562866,221.930649 257.332581,221.961060 257.000305,221.901886 
	C256.898285,221.812286 256.673889,221.659302 256.673889,221.659302 
	C256.673889,221.659302 256.714752,221.603256 256.685699,221.584412 
z"/>
<path fill="#ABC7E9" opacity="1.000000" stroke="none" 
	d="
M257.102325,221.991486 
	C257.332581,221.961060 257.562866,221.930649 258.387146,221.883148 
	C259.310028,221.900177 259.638855,221.934326 260.082214,222.155182 
	C260.365051,222.585510 260.573395,222.788055 260.821686,222.949509 
	C261.510559,223.454941 262.199432,223.960358 262.888306,224.465790 
	C265.157196,221.226791 266.979767,224.139740 269.281494,225.048752 
	C269.354004,226.280792 269.103119,227.370255 269.035278,229.096039 
	C269.281799,229.921295 269.345276,230.110199 269.408722,230.299118 
	C269.408722,230.299118 269.540436,230.392578 269.150574,230.312866 
	C268.523193,230.159241 268.285675,230.085297 268.048126,230.011353 
	C264.311157,228.322495 260.574188,226.633636 256.451691,224.937103 
	C255.999527,224.368118 255.932877,223.806824 256.133972,222.997314 
	C256.635223,222.496567 256.868774,222.244019 257.102325,221.991486 
z"/>
<path fill="#BEDFF6" opacity="1.000000" stroke="none" 
	d="
M268.006042,230.326767 
	C268.285675,230.085297 268.523193,230.159241 269.104767,230.379395 
	C269.162567,231.521561 268.876312,232.517517 268.590057,233.513458 
	C268.381348,233.489655 268.172668,233.465851 267.963989,233.442047 
	C267.963989,232.508759 267.963989,231.575470 268.006042,230.326767 
z"/>
<path fill="#BEDFF6" opacity="1.000000" stroke="none" 
	d="
M269.581451,230.147583 
	C269.345276,230.110199 269.281799,229.921295 269.146149,229.443069 
	C269.300690,229.434525 269.527435,229.715286 269.581451,230.147583 
z"/>
<path fill="#BEDFF6" opacity="1.000000" stroke="none" 
	d="
M260.979370,222.807800 
	C260.573395,222.788055 260.365051,222.585510 260.194824,222.011185 
	C260.192932,221.680466 260.502258,221.486588 260.502258,221.486588 
	C260.632080,221.616791 260.761902,221.747009 261.086670,222.072342 
	C261.281616,222.267456 261.137054,222.666092 260.979370,222.807800 
z"/>
<path fill="#335386" opacity="1.000000" stroke="none" 
	d="
M257.000305,221.901886 
	C256.868774,222.244019 256.635223,222.496567 256.186829,222.574341 
	C256.084961,222.272247 256.197937,222.144928 256.492401,221.838455 
	C256.673889,221.659302 256.898285,221.812286 257.000305,221.901886 
z"/>
<path fill="#335386" opacity="1.000000" stroke="none" 
	d="
M343.712250,243.730484 
	C343.243988,243.285431 342.950500,243.100494 342.406067,242.843536 
	C342.155121,242.771484 342.104828,242.455231 342.095398,242.295227 
	C342.824188,241.783615 343.562378,241.432037 344.612549,241.109879 
	C344.941559,242.170700 344.958618,243.202087 345.032227,244.633316 
	C344.688232,244.685638 344.287628,244.338135 343.712250,243.730484 
z"/>
<path fill="#3D6091" opacity="1.000000" stroke="none" 
	d="
M251.249268,139.751328 
	C250.779236,139.640488 250.092270,139.272781 249.702545,138.771484 
	C250.343964,138.923431 250.688156,139.208954 251.249268,139.751328 
z"/>
<path fill="#2C5087" opacity="1.000000" stroke="none" 
	d="
M273.936218,131.795425 
	C273.969391,131.925079 273.518158,131.864853 273.303406,131.793579 
	C273.360107,131.703461 273.631561,131.684616 273.936218,131.795425 
z"/>
<path fill="#2C5087" opacity="1.000000" stroke="none" 
	d="
M263.769562,132.209671 
	C263.920380,132.406723 263.766174,132.675674 263.248535,132.955994 
	C263.199585,132.803009 263.392761,132.574417 263.769562,132.209671 
z"/>
<path fill="#214E94" opacity="1.000000" stroke="none" 
	d="
M248.494598,132.499847 
	C248.513153,132.494095 248.476059,132.505615 248.494598,132.499847 
z"/>
<path fill="#3D6091" opacity="1.000000" stroke="none" 
	d="
M260.715912,221.181763 
	C260.502258,221.486588 260.192932,221.680466 260.080322,221.824463 
	C259.638855,221.934326 259.310028,221.900177 258.732422,221.836533 
	C259.050110,220.644302 259.616577,219.481567 260.183044,218.318832 
	C260.431885,219.171539 260.680725,220.024246 260.715912,221.181763 
z"/>
</svg>